<?xml version="1.0" standalone="no"?>
<!DOCTYPE svg PUBLIC "-//W3C//DTD SVG 20010904//EN"
 "http://www.w3.org/TR/2001/REC-SVG-20010904/DTD/svg10.dtd">
<svg version="1.0" xmlns="http://www.w3.org/2000/svg"
 width="400px" height="400px" viewBox="0 0 224.000000 224.000000"
 preserveAspectRatio="xMidYMid meet">
<metadata>
Created by potrace 1.10, written by Peter Selinger 2001-2011
</metadata>
<g transform="translate(0.000000,-0.100000) scale(0.100000,-0.100000)"
fill="#000000" stroke="none">
<path d="M1201 2189 c-28 -46 -28 -128 0 -178 54 -97 192 -121 276 -48 44 39
63 82 63 142 0 40 -3 47 -27 56 -52 21 -168 49 -230 55 l-62 7 -20 -34z"/>
<path d="M594 2075 c-78 -45 -244 -177 -244 -194 0 -17 72 -33 126 -29 114 10
208 111 202 217 l-3 51 -81 -45z"/>
<path d="M917 2109 c-186 -43 -252 -265 -117 -399 66 -66 173 -90 254 -56 183
77 201 336 29 428 -56 30 -113 39 -166 27z"/>
<path d="M1605 2080 c-48 -92 24 -210 128 -210 48 0 101 24 121 55 15 23 14
25 -29 62 -53 44 -174 122 -192 122 -7 1 -19 -12 -28 -29z"/>
<path d="M1874 1878 c-69 -82 -105 -218 -87 -325 33 -190 183 -329 369 -341
74 -5 74 -5 74 21 0 86 -53 275 -110 387 -53 106 -187 290 -210 290 -5 0 -21
-15 -36 -32z"/>
<path d="M1342 1854 c-168 -83 -201 -293 -69 -429 41 -42 64 -57 111 -70 75
-22 145 -14 213 25 190 109 174 388 -27 479 -67 31 -161 28 -228 -5z"/>
<path d="M494 1772 c-94 -59 -119 -173 -59 -264 48 -72 148 -98 230 -58 120
58 136 225 29 307 -49 37 -152 45 -200 15z"/>
<path d="M217 1707 c-63 -96 -147 -321 -127 -341 5 -5 38 -12 73 -14 82 -5
139 24 181 91 54 88 30 208 -53 264 -43 29 -55 29 -74 0z"/>
<path d="M1011 1616 c-90 -50 -54 -196 49 -196 52 0 76 13 95 50 25 49 19 88
-19 126 -37 37 -81 44 -125 20z"/>
<path d="M776 1446 c-52 -19 -86 -45 -114 -86 -120 -176 47 -407 251 -346 149
45 209 216 122 348 -51 77 -172 116 -259 84z"/>
<path d="M482 1374 c-34 -23 -27 -83 11 -104 24 -13 30 -13 55 0 37 21 44 81
10 104 -12 9 -29 16 -38 16 -9 0 -26 -7 -38 -16z"/>
<path d="M1227 1335 c-162 -57 -163 -279 -2 -341 124 -47 257 57 242 188 -8
67 -41 113 -101 143 -56 28 -84 30 -139 10z"/>
<path d="M204 1330 c-31 -12 -72 -66 -80 -105 -20 -108 95 -196 193 -148 74
36 102 115 67 189 -29 61 -113 91 -180 64z"/>
<path d="M1574 1286 c-38 -38 -44 -77 -19 -126 19 -37 43 -50 95 -50 79 0 123
78 88 155 -14 32 -56 55 -99 55 -22 0 -41 -10 -65 -34z"/>
<path d="M1822 1174 c-65 -32 -114 -89 -135 -155 -35 -106 -12 -198 68 -276
176 -172 455 -51 455 196 0 193 -214 322 -388 235z"/>
<path d="M460 1168 c-34 -18 -62 -75 -55 -113 3 -16 17 -42 32 -57 37 -39 108
-40 146 -2 47 46 43 121 -7 163 -23 19 -87 24 -116 9z"/>
<path d="M205 1001 c-67 -31 -105 -86 -105 -151 0 -48 39 -138 68 -159 73 -51
162 -47 229 12 64 56 81 142 44 215 -23 46 -46 67 -94 87 -48 20 -93 19 -142
-4z"/>
<path d="M1464 1010 c-39 -15 -74 -68 -74 -111 0 -125 145 -182 224 -88 47 56
29 161 -34 194 -31 16 -83 19 -116 5z"/>
<path d="M963 940 c-117 -47 -210 -174 -220 -303 -15 -183 110 -343 293 -376
154 -28 313 57 380 202 25 53 29 75 29 147 0 71 -4 94 -27 142 -35 76 -98 142
-166 175 -77 37 -211 43 -289 13z"/>
<path d="M552 921 c-68 -43 -79 -131 -23 -185 58 -55 153 -40 186 31 50 105
-66 214 -163 154z"/>
<path d="M1626 690 c-53 -16 -96 -54 -123 -108 -104 -212 198 -392 337 -200
59 80 49 182 -24 254 -55 56 -121 74 -190 54z"/>
<path d="M422 655 c-59 -18 -104 -55 -132 -108 -22 -41 -23 -48 -11 -71 20
-37 167 -180 227 -222 l53 -37 46 27 c171 101 134 361 -60 415 -50 14 -69 13
-123 -4z"/>
<path d="M1393 320 c-41 -25 -53 -48 -53 -105 0 -38 5 -52 28 -75 78 -78 202
-25 202 85 0 91 -98 144 -177 95z"/>
<path d="M722 285 c-36 -30 -48 -75 -32 -115 13 -32 105 -76 138 -66 39 13 67
55 67 103 0 38 -5 49 -33 74 -43 38 -98 40 -140 4z"/>
<path d="M1044 201 c-46 -21 -92 -74 -96 -111 -3 -21 2 -25 37 -31 48 -9 271
-11 302 -3 22 6 22 7 7 43 -43 103 -150 147 -250 102z"/>
</g>
</svg>
