<?xml version="1.0" standalone="no"?>
<!DOCTYPE svg PUBLIC "-//W3C//DTD SVG 20010904//EN"
 "http://www.w3.org/TR/2001/REC-SVG-20010904/DTD/svg10.dtd">
<svg version="1.0" xmlns="http://www.w3.org/2000/svg"
 width="224.000000pt" height="224.000000pt" viewBox="0 0 224.000000 224.000000"
 preserveAspectRatio="xMidYMid meet">
<metadata>
Created by potrace 1.10, written by Peter Selinger 2001-2011
</metadata>
<g transform="translate(0.000000,224.000000) scale(0.100000,-0.100000)"
fill="#000000" stroke="none">
<path d="M1200 2188 c-24 -39 -26 -114 -6 -161 50 -117 210 -144 298 -51 34
37 48 74 48 130 0 41 -3 45 -35 58 -44 19 -215 56 -255 56 -23 0 -35 -7 -50
-32z m190 -34 c106 -24 128 -50 96 -112 -53 -101 -188 -110 -246 -17 -24 38
-26 102 -5 132 17 24 33 24 155 -3z"/>
<path d="M630 2098 c-112 -67 -280 -198 -280 -218 0 -14 61 -30 110 -30 115 0
220 103 220 217 0 29 -3 53 -7 52 -5 0 -24 -10 -43 -21z m0 -77 c0 -32 -44
-85 -90 -108 -46 -24 -95 -30 -104 -14 -6 9 41 50 123 108 53 37 71 41 71 14z"/>
<path d="M917 2109 c-153 -36 -230 -192 -163 -335 67 -144 249 -179 370 -72
121 106 100 305 -41 380 -56 30 -113 39 -166 27z m162 -72 c52 -34 81 -91 81
-156 0 -63 -13 -97 -53 -140 -57 -60 -138 -77 -215 -46 -152 64 -165 281 -20
354 61 31 149 26 207 -12z"/>
<path d="M1605 2080 c-63 -123 72 -255 200 -194 29 13 73 61 63 68 -2 1 -23
18 -48 38 -52 41 -176 118 -190 118 -5 0 -16 -13 -25 -30z m125 -72 c71 -48
81 -65 54 -85 -26 -20 -90 -10 -120 18 -24 23 -41 79 -29 98 11 19 30 12 95
-31z"/>
<path d="M1874 1878 c-15 -18 -38 -56 -51 -85 -121 -263 51 -563 333 -581 86
-5 82 -13 59 121 -25 141 -85 289 -168 412 -46 68 -127 165 -138 165 -4 0 -20
-15 -35 -32z m106 -105 c98 -127 200 -374 200 -484 l0 -42 -44 5 c-111 13
-226 98 -278 207 -28 59 -32 76 -32 156 -1 81 2 97 31 158 23 49 37 67 51 67
12 0 39 -25 72 -67z"/>
<path d="M1342 1854 c-158 -79 -199 -284 -82 -417 57 -64 117 -91 205 -91 58
0 79 5 123 29 198 108 187 391 -18 484 -67 30 -161 28 -228 -5z m225 -39 c113
-57 155 -189 96 -306 -85 -167 -324 -165 -408 4 -97 195 114 400 312 302z"/>
<path d="M494 1771 c-17 -10 -40 -31 -52 -45 -120 -153 48 -361 223 -276 131
64 132 262 2 324 -48 22 -134 21 -173 -3z m156 -36 c97 -50 93 -203 -7 -250
-116 -55 -247 71 -189 183 16 30 53 66 76 75 30 11 92 7 120 -8z"/>
<path d="M187 1652 c-58 -110 -113 -270 -98 -285 6 -6 39 -13 74 -15 51 -3 70
1 107 20 93 50 130 169 82 263 -22 45 -43 65 -88 88 l-31 16 -46 -87z m127
-32 c23 -38 23 -108 1 -150 -23 -45 -82 -80 -132 -80 -43 0 -47 4 -43 45 2 28
69 184 93 218 17 26 21 27 41 14 11 -8 30 -29 40 -47z"/>
<path d="M1015 1616 c-62 -27 -74 -115 -24 -165 24 -24 39 -31 70 -31 51 0 75
13 94 50 25 49 19 88 -19 126 -37 37 -69 43 -121 20z m89 -47 c31 -25 34 -61
6 -89 -39 -39 -110 -11 -110 43 0 28 34 67 59 67 10 0 30 -9 45 -21z"/>
<path d="M776 1445 c-179 -64 -209 -304 -50 -405 152 -96 347 11 347 190 0
102 -56 181 -154 215 -51 18 -92 18 -143 0z m161 -51 c56 -27 87 -76 91 -149
5 -81 -20 -134 -82 -170 -70 -41 -149 -36 -215 12 -101 77 -89 234 24 304 38
24 134 25 182 3z"/>
<path d="M482 1374 c-34 -23 -27 -83 11 -104 24 -13 30 -13 55 0 37 21 44 81
10 104 -12 9 -29 16 -38 16 -9 0 -26 -7 -38 -16z"/>
<path d="M1225 1335 c-79 -28 -134 -121 -119 -200 13 -71 80 -138 151 -151 80
-15 181 47 204 127 42 140 -99 274 -236 224z m136 -51 c39 -20 73 -93 65 -138
-16 -86 -98 -141 -175 -118 -52 16 -87 52 -101 102 -15 54 0 99 46 140 29 25
43 30 85 30 27 0 64 -7 80 -16z"/>
<path d="M193 1320 c-113 -69 -83 -233 47 -255 78 -13 160 56 160 134 0 107
-117 176 -207 121z m116 -34 c56 -29 67 -102 22 -147 -50 -50 -130 -37 -156
24 -37 89 48 167 134 123z"/>
<path d="M1574 1286 c-38 -38 -44 -77 -19 -126 19 -37 43 -50 95 -50 79 0 123
78 88 155 -14 32 -56 55 -99 55 -22 0 -41 -10 -65 -34z m119 -34 c37 -32 5
-102 -48 -102 -28 0 -65 32 -65 56 0 25 20 55 43 63 25 9 44 5 70 -17z"/>
<path d="M1822 1174 c-119 -59 -175 -190 -137 -320 13 -47 27 -69 70 -111 91
-88 196 -104 312 -47 159 77 192 307 62 431 -81 76 -209 96 -307 47z m214 -33
c120 -55 167 -192 107 -312 -48 -94 -141 -138 -248 -118 -130 24 -211 156
-175 285 17 58 82 130 135 149 56 20 132 18 181 -4z"/>
<path d="M460 1168 c-34 -18 -62 -75 -55 -113 3 -16 17 -42 32 -57 37 -39 108
-40 146 -2 47 46 43 121 -7 163 -23 19 -87 24 -116 9z m99 -53 c35 -33 1 -105
-49 -105 -37 0 -62 30 -58 71 5 53 66 73 107 34z"/>
<path d="M205 1001 c-66 -31 -105 -86 -105 -151 0 -45 41 -139 69 -159 72 -51
161 -46 228 12 64 56 81 142 44 215 -23 46 -46 67 -94 87 -48 20 -93 19 -142
-4z m150 -45 c83 -55 83 -184 0 -236 -42 -26 -110 -26 -151 -1 -38 23 -69 104
-60 155 7 35 46 79 86 95 32 14 94 7 125 -13z"/>
<path d="M1464 1010 c-39 -15 -74 -68 -74 -111 0 -125 145 -182 224 -88 47 56
29 161 -34 194 -31 16 -83 19 -116 5z m95 -45 c76 -39 43 -155 -44 -155 -79 0
-112 84 -56 141 33 32 58 36 100 14z"/>
<path d="M963 940 c-161 -64 -257 -258 -209 -424 47 -159 176 -256 341 -256
98 0 169 27 238 90 78 71 111 148 112 260 0 72 -4 94 -27 142 -35 75 -94 138
-164 173 -78 39 -211 46 -291 15z m237 -37 c70 -22 150 -96 181 -165 33 -77
32 -183 -2 -258 -46 -99 -132 -164 -236 -178 -144 -20 -271 46 -334 174 -20
40 -24 64 -24 134 0 73 4 92 27 135 33 60 51 81 100 119 73 55 189 71 288 39z"/>
<path d="M552 921 c-68 -43 -79 -131 -23 -185 58 -55 153 -40 186 31 50 105
-66 214 -163 154z m116 -57 c12 -14 22 -34 22 -45 0 -24 -52 -79 -74 -79 -57
0 -101 63 -75 109 18 31 57 53 84 45 11 -3 30 -17 43 -30z"/>
<path d="M1626 690 c-53 -16 -96 -54 -123 -108 -104 -212 198 -392 337 -200
59 80 49 182 -24 254 -55 56 -121 74 -190 54z m140 -60 c35 -22 74 -91 74
-131 0 -48 -42 -112 -90 -137 -104 -53 -230 21 -230 135 0 41 38 109 73 132
44 28 128 28 173 1z"/>
<path d="M422 656 c-59 -20 -104 -56 -132 -109 -30 -56 -25 -67 69 -162 63
-65 186 -165 201 -165 4 0 29 15 56 32 115 78 132 247 36 344 -61 60 -154 85
-230 60z m156 -55 c113 -58 125 -237 21 -312 -31 -22 -32 -22 -67 -3 -20 10
-75 58 -124 105 -65 64 -88 93 -88 112 0 32 39 79 82 100 45 23 130 22 176 -2z"/>
<path d="M1393 320 c-41 -25 -53 -48 -53 -105 0 -38 5 -52 28 -75 78 -78 202
-25 202 85 0 91 -98 144 -177 95z m120 -52 c40 -47 5 -118 -58 -118 -61 0 -93
57 -64 111 22 42 89 46 122 7z"/>
<path d="M722 285 c-36 -30 -48 -75 -32 -115 13 -32 105 -76 138 -66 39 13 67
55 67 103 0 38 -5 49 -33 74 -43 38 -98 40 -140 4z m108 -33 c25 -20 30 -63 9
-88 -15 -18 -70 -14 -95 7 -22 18 -17 66 8 83 29 21 51 20 78 -2z"/>
<path d="M1044 201 c-44 -20 -88 -70 -99 -112 -6 -25 -5 -26 56 -33 77 -8 256
-8 286 0 22 6 22 7 7 43 -43 103 -150 147 -250 102z m123 -32 c35 -13 73 -48
73 -67 0 -11 -21 -13 -114 -10 -63 1 -118 6 -122 10 -10 11 25 48 61 64 37 16
65 17 102 3z"/>
</g>
</svg>
