<?xml version="1.0" encoding="UTF-8"?>
<svg version="1.1" xmlns="http://www.w3.org/2000/svg" width="100" height="100">
<path d="M0 0 C464.64 0 929.28 0 1408 0 C1408 253.44 1408 506.88 1408 768 C943.36 768 478.72 768 0 768 C0 514.56 0 261.12 0 0 Z " fill="#FEFEFE" transform="translate(0,0)"/>
<path d="M0 0 C94.71 0 189.42 0 287 0 C282.46413095 9.0717381 279.11711258 12.43940851 270.0625 16.375 C260.35907145 19.59160615 249.75717302 18.49170095 239.8125 17 C218.03080535 14.02483333 194.99461404 13.11821901 176.32421875 26.20703125 C175.55722656 26.79871094 174.79023438 27.39039062 174 28 C173.34644531 28.49886719 172.69289062 28.99773438 172.01953125 29.51171875 C165.04512449 35.62394719 159.55566974 46.5232593 158.76171875 55.77734375 C158.57179674 63.86402291 159.02344184 71.77969115 163 79 C165.80272989 80.97909468 168.67386761 81.35172832 172 82 C186.22059488 86.86758693 197.89559042 95.7481443 209.71875 104.75390625 C214.33356197 108.26774979 219.0095047 111.69598854 223.6875 115.125 C230.10517978 119.8391031 236.45735062 124.6199862 242.75 129.5 C246.52821921 132.42081784 250.36004629 135.26922322 254.1875 138.125 C275.69467752 154.20623044 275.69467752 154.20623044 276.5 158.9375 C275.89004096 162.67349911 274.61276889 164.31038497 272 167 C269.00166684 168.49916658 267.37426697 168.41657617 264 168 C260.57713614 166.33875321 257.47152777 164.23727289 254.3125 162.125 C253.35408203 161.49932129 252.39566406 160.87364258 251.40820312 160.22900391 C248.26180099 158.16789859 245.13009326 156.08577643 242 154 C239.86856905 152.58842167 237.73705788 151.17696445 235.60546875 149.765625 C226.66644731 143.82980053 217.74057923 137.87604697 208.87652588 131.82870483 C206.13179582 129.95837044 203.38118648 128.09679172 200.62988281 126.23614502 C199.30176671 125.33446707 197.97651982 124.42854726 196.65429688 123.51824951 C194.8102987 122.24903523 192.95718692 120.99431815 191.1015625 119.7421875 C190.04275879 119.0188623 188.98395508 118.29553711 187.89306641 117.55029297 C184.88285339 115.93722523 183.34810696 115.46444861 180 116 C177.68677022 117.85530515 177.68677022 117.85530515 177.921875 120.76953125 C179.46901855 125.40535631 182.3104112 127.00594631 186.25 129.6875 C187.71731648 130.73351916 189.18212564 131.78306355 190.64453125 132.8359375 C191.37881348 133.36155273 192.1130957 133.88716797 192.86962891 134.42871094 C196.01606909 136.74941791 198.98166219 139.25599157 201.9375 141.8125 C206.02406573 145.32799043 210.16390607 148.72708759 214.44140625 152.0078125 C224.20479218 159.60983819 233.71473436 167.53878668 243.1328125 175.5625 C244.62268532 176.82909488 246.11875867 178.09085524 247.671875 179.27905273 C251.80529789 182.48747533 251.80529789 182.48747533 252.796875 185.09765625 C252.74625601 187.21943572 252.63618895 188.96843663 252 191 C249.08897049 193.77240906 247.13477992 194.86028701 243.14453125 195.3515625 C239.07355007 194.89642175 237.45345349 193.48337526 234.3125 190.875 C233.16469618 189.94552111 232.01483074 189.01858425 230.86328125 188.09375 C230.24404785 187.59230469 229.62481445 187.09085938 228.98681641 186.57421875 C225.40348764 183.73503174 221.69428357 181.06711495 218 178.375 C211.08317743 173.30893247 204.24225921 168.1529589 197.4375 162.9375 C190.66188085 157.75226312 183.84579147 152.63243289 176.9375 147.625 C176.19363037 147.08351318 175.44976074 146.54202637 174.68334961 145.98413086 C173.99249268 145.4866333 173.30163574 144.98913574 172.58984375 144.4765625 C171.69060181 143.8280835 171.69060181 143.8280835 170.77319336 143.16650391 C168.91190513 141.94204636 167.01013402 140.95683817 165 140 C165.42708252 140.34667725 165.85416504 140.69335449 166.29418945 141.05053711 C181.80307921 153.64123288 181.80307921 153.64123288 189.44140625 159.90625 C191.15338187 161.30719493 192.86957315 162.70300333 194.58984375 164.09375 C200.09634304 168.55716793 205.51074348 173.11735177 210.875 177.75 C211.50567383 178.29301758 212.13634766 178.83603516 212.78613281 179.39550781 C222.83393516 188.11432083 222.83393516 188.11432083 223.5625 192 C222.84909176 195.80484394 221.9236459 197.4511805 219 200 C213.49315955 200.78766152 210.61620916 199.57313377 206.30712891 196.44580078 C205.62827637 195.92743652 204.94942383 195.40907227 204.25 194.875 C203.15244385 194.06844971 203.15244385 194.06844971 202.03271484 193.24560547 C200.47385925 192.09733983 198.92042341 190.94168555 197.37207031 189.77929688 C195.03850626 188.02888366 192.69038656 186.30031522 190.3359375 184.578125 C186.35400292 181.66259516 182.38554255 178.72934009 178.42041016 175.79101562 C175.99575377 173.99685795 173.5670289 172.20836529 171.13671875 170.421875 C162.80505556 164.2968132 154.49021675 158.15264824 146.24926758 151.90576172 C142.57812174 149.13466083 138.85263036 146.51335457 135 144 C132.2807574 152.56973425 130.00886594 161.23949331 128 170 C127.79052734 170.90218262 127.58105469 171.80436523 127.36523438 172.73388672 C123.9371884 187.84408642 122.25765339 202.60608097 121.80810547 218.05834961 C121.78167465 218.74152756 121.75524384 219.42470551 121.72801208 220.12858582 C121.65705888 221.98594584 121.60696067 223.84406943 121.55834961 225.70214844 C120.88981992 229.65077065 119.46969542 231.8814201 117 235 C113.78305636 236.60847182 110.47862778 236.61309149 107 236 C104.30894802 233.82425584 102.54467072 232.08934144 101 229 C100.8082743 226.49874874 100.67015023 224.01697423 100.5703125 221.51171875 C100.49860332 219.93626133 100.42648283 218.36082259 100.35400391 216.78540039 C100.29856415 215.53848923 100.29856415 215.53848923 100.24200439 214.26638794 C100.04553412 158.37584124 100.04553412 158.37584124 76.5625 110.3125 C64.35596123 100.40817679 51.78618854 97.80734921 36.4375 97.6875 C35.25736328 97.65849609 34.07722656 97.62949219 32.86132812 97.59960938 C21.12408187 97.51857687 12.13563797 99.68844991 0 102 C0 68.34 0 34.68 0 0 Z " fill="#3EADB4" transform="translate(0,0)"/>
<path d="M0 0 C4.23295677 0.43047018 5.72110375 1.40860375 8.6875 4.375 C11.75334558 10.50669117 9.68374077 20.87267628 9.19921875 27.6171875 C8.47437583 38.96876987 8.42899827 50.33317857 8.39233398 61.7043457 C8.38076941 64.19496318 8.36024796 66.68555503 8.33081055 69.17602539 C8.0890083 89.74002322 8.27839165 110.24973288 23.1796875 126.19921875 C37.37719613 138.51699493 51.57349019 138.57858292 70.6875 139.375 C70.6875 174.025 70.6875 208.675 70.6875 244.375 C-5.8725 244.375 -82.4325 244.375 -161.3125 244.375 C-160.08487377 232.09873765 -156.98909337 223.77216488 -147.80859375 215.390625 C-136.43936214 206.20983703 -123.04497565 202.70494838 -109.3125 198.375 C-105.03628626 197.01616124 -100.76697408 195.63753836 -96.5 194.25 C-95.54125977 193.949729 -94.58251953 193.64945801 -93.59472656 193.34008789 C-79.75478082 188.84294972 -68.08963956 181.92491919 -60.6015625 169.16015625 C-56.35226056 159.97908872 -52.94369377 148.36333681 -56.3125 138.375 C-59.63931823 134.30930277 -64.69472672 132.42389747 -69.38085938 130.31689453 C-77.92408045 126.15110246 -84.72893562 118.09908983 -91.32128906 111.39892578 C-94.90241954 107.75933191 -98.55800961 104.3121699 -102.45703125 101.01171875 C-105.48074598 98.34448407 -108.25942797 95.43566135 -111.08984375 92.56640625 C-113.7395144 89.95398932 -116.52422803 87.54197379 -119.34765625 85.12109375 C-121.42070324 83.27884325 -123.36685802 81.35098338 -125.3125 79.375 C-127.85222186 76.7957494 -130.43701314 74.35282611 -133.1875 72 C-136.42714487 69.17899711 -139.62240497 66.32018906 -142.75 63.375 C-143.59433594 62.59125 -144.43867187 61.8075 -145.30859375 61 C-147.80140835 57.73455865 -148.16157816 55.44517346 -148.3125 51.375 C-146.875 48.4375 -146.875 48.4375 -144.3125 46.375 C-139.63918996 45.89271826 -137.36168852 45.78215495 -133.25 48.10546875 C-132.280625 48.91628906 -131.31125 49.72710938 -130.3125 50.5625 C-129.49845703 51.22765625 -129.49845703 51.22765625 -128.66796875 51.90625 C-127.49193984 52.86990348 -126.32286789 53.84209696 -125.16015625 54.82177734 C-122.58403627 56.98737926 -119.96761037 59.10189022 -117.3527832 61.22045898 C-115.98712438 62.32792217 -114.62369267 63.43813711 -113.26245117 64.55102539 C-109.10652471 67.9459724 -104.90019734 71.25694907 -100.625 74.5 C-96.26523122 77.82351832 -92.03839711 81.25024517 -87.875 84.8125 C-85.69064491 86.67039982 -83.50264287 88.52392741 -81.3125 90.375 C-80.70664063 90.88869141 -80.10078125 91.40238281 -79.4765625 91.93164062 C-77.6222736 93.49162849 -75.75135253 95.02916077 -73.875 96.5625 C-73.0243396 97.28554321 -73.0243396 97.28554321 -72.15649414 98.02319336 C-69.39828862 100.24679028 -67.57201261 101.34136519 -64.02734375 101.80078125 C-61.17064664 101.6258187 -61.17064664 101.6258187 -59.3125 99.375 C-59.45681173 95.18995994 -62.51318079 93.10073659 -65.3125 90.375 C-66.40436214 89.27543808 -67.49410069 88.17376456 -68.58203125 87.0703125 C-74.02142677 81.58209896 -79.42057988 76.13797312 -85.32421875 71.14453125 C-88.43534002 68.37569444 -91.32321079 65.38456889 -94.24682617 62.42114258 C-96.85203644 59.79427111 -99.49729765 57.27484463 -102.3125 54.875 C-107.61163156 50.35322039 -112.42476454 45.33104232 -117.3125 40.375 C-118.08207031 39.68019531 -118.85164063 38.98539063 -119.64453125 38.26953125 C-121.3125 36.375 -121.3125 36.375 -121.25 32.75 C-120.3125 29.375 -120.3125 29.375 -117.3125 27.375 C-113.36459508 26.55251981 -111.42931377 26.74147517 -107.90234375 28.7421875 C-101.1599172 33.52841666 -94.95294348 39.01285221 -88.71875 44.43359375 C-85.79500692 46.97147454 -82.82075657 49.4374274 -79.8125 51.875 C-72.5837302 57.74903696 -65.55547133 63.85558698 -58.50097656 69.93652344 C-54.99777531 72.95469521 -51.4892795 75.96640457 -47.96875 78.96435547 C-46.87103832 79.89928738 -45.77466575 80.835794 -44.6796875 81.77392578 C-43.16807646 83.06540381 -41.64677182 84.34551027 -40.125 85.625 C-39.26519531 86.35203125 -38.40539063 87.0790625 -37.51953125 87.828125 C-35.35224525 89.6619743 -35.35224525 89.6619743 -32.3125 89.375 C-20.59960914 66.89076899 -11.52745273 40.09443507 -10.11938477 14.63867188 C-9.66764783 8.13594365 -7.2596673 0.82184913 0 0 Z " fill="#6CBB84" transform="translate(1337.3125,523.625)"/>
<path d="M0 0 C3.00350859 1.45020667 5.84114357 3.07535171 8.6875 4.8125 C11.89683582 6.75968474 15.12198893 8.61587093 18.4375 10.375 C22.93528499 12.84483632 26.97050567 15.81639998 31.0859375 18.87109375 C39.2035429 24.98423459 39.2035429 24.98423459 48.03515625 29.9140625 C50.84306251 31.46594707 52.75881298 33.71806412 55 36 C56.72212697 37.36914443 58.47424648 38.70116314 60.25 40 C65.62362048 43.96976213 70.9472661 47.9984741 76.25 52.0625 C77.01344727 52.64708984 77.77689453 53.23167969 78.56347656 53.83398438 C80.37603759 55.22215298 82.18821723 56.61081589 84 58 C82.38731308 60.71224618 80.75098126 63.37352812 79 66 C78.58059596 68.05393074 78.21306696 70.11862543 77.875 72.1875 C76.68254212 78.03478079 74.87830014 82.99231328 72.1875 88.3125 C71.8682959 88.94502686 71.5490918 89.57755371 71.22021484 90.22924805 C70.5721294 91.46291242 69.89494409 92.68182118 69.18668556 93.88195133 C67.95162941 95.9908094 67.95162941 95.9908094 67.03580284 98.31239223 C65.63862437 101.14157655 64.40029021 102.92944258 62 105 C56.65841416 106.34832627 51.36114096 106.13866638 45.89697266 106.02172852 C44.2409377 106.01918853 42.5848926 106.02061745 40.92886353 106.02571106 C36.4408675 106.02829105 31.95504101 105.97542332 27.46754885 105.91254544 C22.77513953 105.85624096 18.08267912 105.85099364 13.38998413 105.84031677 C4.50738015 105.81235564 -4.3742256 105.73851802 -13.25639021 105.64817137 C-23.36985947 105.54753582 -33.48337669 105.49808102 -43.59722209 105.45291245 C-64.39870499 105.35886669 -85.19928959 105.2005885 -106 105 C-105.86089189 103.40135166 -105.71586868 101.80321731 -105.56835938 100.20532227 C-105.48823608 99.31531021 -105.40811279 98.42529816 -105.32556152 97.50831604 C-104.07273582 87.85581546 -97.31948635 79.91057114 -90 74 C-79.49276446 66.00425003 -66.40410959 62.91110501 -54 59 C-49.72378626 57.64116124 -45.45447408 56.26253836 -41.1875 54.875 C-40.22875977 54.574729 -39.27001953 54.27445801 -38.28222656 53.96508789 C-24.49624575 49.48548503 -12.31386509 42.51047107 -5.21484375 29.47265625 C-4.81394531 28.65667969 -4.41304687 27.84070313 -4 27 C-3.67128906 26.33871094 -3.34257813 25.67742188 -3.00390625 24.99609375 C0.17725212 17.21823764 -0.25899846 8.27901981 0 0 Z " fill="#83BC53" transform="translate(1282,663)"/>
<path d="M0 0 C1.65 0.33 3.3 0.66 5 1 C6.44618144 5.19265761 7.63444486 9.39652695 8.75 13.6875 C12.87776342 28.08175191 21.44726201 38.14569312 31.5 48.9375 C50 68.80140636 50 68.80140636 50 77 C59.8511899 72.34389049 69.00876512 67.14841797 78 61 C78.845625 60.42507813 79.69125 59.85015625 80.5625 59.2578125 C97.85246033 46.71058434 105.95894617 26.92582652 112.23828125 7.29296875 C113 5 113 5 114 3 C115.65 3 117.3 3 119 3 C122.27217808 8.322743 122.57847449 12.80028876 122.5625 18.875 C122.56080811 19.79958008 122.55911621 20.72416016 122.55737305 21.67675781 C122.23999443 33.98552869 117.50123548 44.64404968 111 55 C119.74100324 47.00822561 122.38339473 38.2265522 125 27 C125.66 27 126.32 27 127 27 C130.89869122 33.17292776 130.9310196 38.82505046 129.37890625 45.78515625 C126.37050899 55.71955253 121.1673517 64.75283762 115.84375 73.609375 C106.80683913 88.69175395 103.21194958 103.80137177 107.125 121.1875 C108.67990388 126.53995758 110.75785523 131.70949627 112.93017578 136.83862305 C114.39273008 140.30553941 115.25080955 143.25404776 116 147 C106.1 147 96.2 147 86 147 C79.41767776 128.56949773 75.04944302 111.13912665 83.53515625 92.65625 C84.97530104 89.74191445 86.45713988 86.86103187 88 84 C69.89363261 102.41420362 59.08079442 121.59602789 54 147 C40.14 147 26.28 147 12 147 C14.31 141.39 16.62 135.78 19 130 C22.53585259 120.66172266 23.38841508 112.85732935 23.5 102.9375 C23.51861084 101.86121338 23.53722168 100.78492676 23.55639648 99.67602539 C23.45106936 86.22585415 18.68057605 75.64314366 12.125 64.125 C7.04849625 54.94492367 2.24274984 46.0006405 -1 36 C-1.39058594 34.80310547 -1.39058594 34.80310547 -1.7890625 33.58203125 C-3.29317478 27.75610303 -3.22763076 21.73328167 -3.3125 15.75 C-3.33932861 14.45316284 -3.33932861 14.45316284 -3.36669922 13.13012695 C-3.35971453 7.978921 -2.78785613 4.5017624 0 0 Z " fill="#8ABF52" transform="translate(466,336)"/>
<path d="M0 0 C71.94 0 143.88 0 218 0 C213.46413095 9.0717381 210.11711258 12.43940851 201.0625 16.375 C191.35907145 19.59160615 180.75717302 18.49170095 170.8125 17 C149.03080535 14.02483333 125.99461404 13.11821901 107.32421875 26.20703125 C106.55722656 26.79871094 105.79023438 27.39039062 105 28 C104.34644531 28.49886719 103.69289063 28.99773438 103.01953125 29.51171875 C96.05063898 35.61911441 90.45022846 46.61021922 89.796875 55.8828125 C89.70285755 62.38568638 90.12530965 67.774705 92.44140625 73.87890625 C93.08075022 76.30662497 92.80375775 77.65260154 92 80 C90.35 79.67 88.7 79.34 87 79 C87 78.34 87 77.68 87 77 C85.906875 76.896875 84.81375 76.79375 83.6875 76.6875 C73.38572666 75.39294087 63.37905402 71.95306465 54.25 67.0625 C52.26283143 66.12411484 50.30573707 65.36505448 48.2421875 64.6171875 C44.04426023 63.06894685 40.10252163 61.16546762 36.125 59.125 C34.71887588 58.40990867 33.31262615 57.69506428 31.90625 56.98046875 C31.23464844 56.63806152 30.56304687 56.2956543 29.87109375 55.94287109 C27.47427894 54.73508158 25.0480645 53.59152281 22.625 52.4375 C13.27086742 47.72914899 5.59660523 41.12787853 -2 34 C-1.41215273 30.92048194 -0.51696842 29.18712851 1.5 26.8125 C4.48914908 22.68712465 5.57078123 19.09793643 5 14 C3.89706642 10.71947961 2.59741095 7.63698304 1.12890625 4.50390625 C0 2 0 2 0 0 Z " fill="#84BB54" transform="translate(69,0)"/>
<path d="M0 0 C4.23295677 0.43047018 5.72110375 1.40860375 8.6875 4.375 C11.75334558 10.50669117 9.68374077 20.87267628 9.19921875 27.6171875 C8.47437583 38.96876987 8.42899827 50.33317857 8.39233398 61.7043457 C8.38076941 64.19496318 8.36024796 66.68555503 8.33081055 69.17602539 C8.0890083 89.74002322 8.27839165 110.24973288 23.1796875 126.19921875 C33.8081681 135.42050176 45.30197608 138.6062284 59.125 139 C60.7946582 139.05800781 60.7946582 139.05800781 62.49804688 139.1171875 C65.22770476 139.21090966 67.95736563 139.29662294 70.6875 139.375 C70.71214638 145.19571622 70.7303343 151.01640234 70.74243164 156.8371582 C70.74747267 158.81893441 70.75430538 160.80070689 70.76293945 162.7824707 C70.77501515 165.62452109 70.78073045 168.46652247 70.78515625 171.30859375 C70.79031754 172.20025742 70.79547882 173.09192108 70.80079651 174.01060486 C70.80099177 176.13240601 70.7496003 178.2541078 70.6875 180.375 C69.6875 181.375 69.6875 181.375 66.53125 181.8125 C61.34954652 181.22271261 59.58117177 179.11735772 56.1875 175.375 C55.61999023 174.77776123 55.05248047 174.18052246 54.46777344 173.56518555 C52.85250252 171.85376756 51.26492222 170.1212805 49.6875 168.375 C49.00171875 167.61832031 48.3159375 166.86164063 47.609375 166.08203125 C46.50994077 164.83617704 45.42225404 163.57983892 44.34765625 162.3125 C42.41083087 160.05211085 40.39210118 157.87649328 38.375 155.6875 C33.11564734 149.85667268 28.39233497 143.65180336 23.6875 137.375 C23.0672998 136.54887207 23.0672998 136.54887207 22.43457031 135.70605469 C20.51713894 133.15099051 18.60299762 130.59360197 16.6953125 128.03125 C16.03273438 127.1546875 15.37015625 126.278125 14.6875 125.375 C14.02492188 124.4778125 13.36234375 123.580625 12.6796875 122.65625 C10.69837883 120.38745733 9.37666845 119.58271038 6.6875 118.375 C5.55529831 117.38535155 4.45308281 116.36084259 3.375 115.3125 C-0.8842689 111.48865822 -5.52235634 108.73324968 -10.44360352 105.86865234 C-16.98427905 102.04191285 -23.13005324 97.75269059 -29.3125 93.375 C-30.3025 92.715 -31.2925 92.055 -32.3125 91.375 C-30.9917962 87.13661892 -29.37356972 83.11829031 -27.59692383 79.05883789 C-23.07717186 68.69765053 -19.39972528 58.24492522 -16.3125 47.375 C-16.07901855 46.5588623 -15.84553711 45.74272461 -15.60498047 44.90185547 C-12.78166811 34.85839754 -10.69492499 25.08224635 -10.12011719 14.640625 C-9.66661023 8.13750631 -7.26139937 0.82204521 0 0 Z " fill="#64AC5E" transform="translate(1337.3125,523.625)"/>
<path d="M0 0 C4.21167551 1.4635767 7.61439819 3.6414801 11.1875 6.25 C12.07042725 6.88687744 12.07042725 6.88687744 12.97119141 7.53662109 C21.13801713 13.48207022 29.06530034 19.75030655 37 26 C35.38731308 28.71224618 33.75098126 31.37352812 32 34 C31.58059596 36.05393074 31.21306696 38.11862543 30.875 40.1875 C29.68254212 46.03478079 27.87830014 50.99231328 25.1875 56.3125 C24.8682959 56.94502686 24.5490918 57.57755371 24.22021484 58.22924805 C23.572912 59.46142269 22.89924037 60.68018914 22.19708443 61.88195133 C20.96014906 64.00021759 20.96014906 64.00021759 19.94221306 66.31239223 C18.53066531 69.00309366 17.23185671 70.9245302 15 73 C10.53019053 74.31729807 6.18949192 74.13894854 1.55908203 74.02172852 C0.18875802 74.0191877 -1.18157823 74.02061907 -2.55189514 74.02571106 C-6.26118022 74.02828806 -9.96783307 73.97547499 -13.67650747 73.91254544 C-17.55610303 73.85618772 -21.43576261 73.85098958 -25.31570435 73.84031677 C-32.65781514 73.81237075 -39.99871628 73.73855547 -47.34029496 73.64817137 C-55.70044228 73.5474872 -64.06064814 73.49806912 -72.42125106 73.45291245 C-89.61486647 73.35890121 -106.80730524 73.20065464 -124 73 C-113.1066929 65.73779527 -95.52663333 66.55712166 -82.86987305 65.42407227 C-58.85806387 63.24263736 -39.3894218 57.33938029 -22 40 C-21.34128906 39.36449219 -20.68257812 38.72898437 -20.00390625 38.07421875 C-10.01431481 27.66935561 -4.55281494 13.42634054 0 0 Z " fill="#418450" transform="translate(1329,695)"/>
<path d="M0 0 C0.46148437 0.35191406 0.92296875 0.70382813 1.3984375 1.06640625 C10.73442879 8.13297673 20.41857035 14.70579083 30.125 21.25 C31.67380859 22.30960938 31.67380859 22.30960938 33.25390625 23.390625 C38.711735 27.06162319 43.7093374 30.03888216 50 32 C49.42832306 36.9687957 48.32904086 41.3076686 46.63671875 46.0078125 C44.035085 53.51740959 42.26670176 61.05680691 40.8125 68.875 C40.62098358 69.87850494 40.62098358 69.87850494 40.42559814 70.90228271 C38.0797631 83.33875222 37.09302944 95.71995393 36.75708008 108.36279297 C36.71091553 109.66877441 36.66475098 110.97475586 36.6171875 112.3203125 C36.59253418 113.46773926 36.56788086 114.61516602 36.54248047 115.79736328 C35.88243808 119.69404916 34.43084843 121.91834638 32 125 C28.78305636 126.60847182 25.47862778 126.61309149 22 126 C19.30894802 123.82425584 17.54467072 122.08934144 16 119 C15.8082743 116.49874874 15.67015023 114.01697423 15.5703125 111.51171875 C15.49860332 109.93626133 15.42648283 108.36082259 15.35400391 106.78540039 C15.31704407 105.95412628 15.28008423 105.12285217 15.24200439 104.26638794 C13.62990694 62.21420947 13.62990694 62.21420947 4.63476562 21.31933594 C3.95594422 18.83902696 3.68577566 16.49890482 3.5 13.9375 C3.12987078 8.96831831 1.77966736 4.63385087 0 0 Z " fill="#85BC54" transform="translate(85,110)"/>
<path d="M0 0 C2.53959536 1.85311222 4.50885012 4.13262643 6.5625 6.5 C7.16747314 7.17417969 7.77244629 7.84835938 8.39575195 8.54296875 C17.58715315 18.88762728 26.17777596 29.66946517 34.24536133 40.90917969 C36.62868731 44.2118201 39.07517744 47.28122263 41.875 50.25 C48.24037435 57.31923786 50.7762717 65.6237505 51 75 C48.67772044 72.02218206 46.74328489 68.92993448 44.8125 65.6875 C38.18537293 55.36342187 28.46532969 49.1760035 17 45 C-1.32558032 41.2382105 -21.02034238 43.86079825 -39 48 C-39 34.47 -39 20.94 -39 7 C-33.8953125 6.1028125 -33.8953125 6.1028125 -28.6875 5.1875 C-21.75519509 3.95286873 -14.93434158 2.67749352 -8.21875 0.515625 C-5.17613361 -0.19146191 -3.12660566 -0.48401885 0 0 Z " fill="#195C71" transform="translate(39,54)"/>
<path d="M0 0 C0.66 0 1.32 0 2 0 C5.89869122 6.17292776 5.9310196 11.82505046 4.37890625 18.78515625 C1.37050899 28.71955253 -3.8326483 37.75283762 -9.15625 46.609375 C-18.19316087 61.69175395 -21.78805042 76.80137177 -17.875 94.1875 C-16.32009612 99.53995758 -14.24214477 104.70949627 -12.06982422 109.83862305 C-10.60726992 113.30553941 -9.74919045 116.25404776 -9 120 C-18.9 120 -28.8 120 -39 120 C-45.42702493 102.0043302 -49.99729349 84.5418433 -41.81640625 66.37109375 C-34.45761191 52.04958749 -23.75632285 39.06252147 -12.75 27.4375 C-5.21628786 19.19129725 -2.28622214 10.81773404 0 0 Z " fill="#177A87" transform="translate(591,363)"/>
<path d="M0 0 C20.79 0 41.58 0 63 0 C56.72667254 8.36443662 56.72667254 8.36443662 53.44921875 12.359375 C49.82390839 17.01237163 47.26926857 21.90526084 44.8125 27.25 C44.38396729 28.1673291 43.95543457 29.0846582 43.51391602 30.02978516 C39.39558218 39.01595954 35.92269337 48.08104623 35 58 C20.72854055 52.10526675 9.28343081 44.58721912 -2 34 C-1.41215273 30.92048194 -0.51696842 29.18712851 1.5 26.8125 C4.48914908 22.68712465 5.57078123 19.09793643 5 14 C3.89706642 10.71947961 2.59741095 7.63698304 1.12890625 4.50390625 C0 2 0 2 0 0 Z " fill="#408450" transform="translate(69,0)"/>
<path d="M0 0 C1.09538086 -0.01836914 1.09538086 -0.01836914 2.21289062 -0.03710938 C10.36886279 -0.05878158 16.94494076 1.92013631 24.125 5.6875 C24.73150391 5.99558594 25.33800781 6.30367187 25.96289062 6.62109375 C28.69353951 8.02096436 31.25612512 9.48325008 33.8125 11.1875 C29.12255933 21.35655404 19.69155108 28.3280997 9.5625 32.5625 C-2.46739464 36.92007793 -14.43763576 36.10238224 -26.1875 31.1875 C-30.09322335 29.17390339 -33.93207532 27.16239711 -37.1875 24.1875 C-37.1875 19.80343614 -36.53691576 18.97388914 -33.63061523 15.9230957 C-33.11313721 15.41222412 -32.59565918 14.90135254 -32.0625 14.375 C-31.53277588 13.84672607 -31.00305176 13.31845215 -30.45727539 12.77416992 C-22.01561654 4.76189351 -11.65365876 0.01002034 0 0 Z " fill="#2C9DA5" transform="translate(1103.1875,732.8125)"/>
<path d="M0 0 C-4.71034547 10.67187645 -15.43136865 18.73073112 -25.8125 23.4375 C-37.2861695 27.19667947 -51.82316452 26.7989889 -62.6015625 21.37890625 C-63.39304687 20.92386719 -64.18453125 20.46882813 -65 20 C-65.75023437 19.59652344 -66.50046875 19.19304688 -67.2734375 18.77734375 C-68.87368581 17.89499339 -70.44247803 16.95575212 -72 16 C-69.30095021 6.40337851 -59.99221099 0.0553817 -52 -5 C-33.62852539 -14.70304671 -16.9181641 -9.58473065 0 0 Z " fill="#2D9CA3" transform="translate(408,15)"/>
<path d="M0 0 C4.03805866 1.36266644 6.54368118 3.1409151 9.625 6.0625 C13.15991317 9.34042394 16.74629475 12.47470497 20.5 15.5 C25.04049255 19.17472067 29.41396023 22.98344392 33.6953125 26.95703125 C35.90904332 29.00073219 35.90904332 29.00073219 38.1796875 30.51171875 C40.125 31.875 40.125 31.875 43 35 C43 38.63 43 42.26 43 46 C21.88 46 0.76 46 -21 46 C-13 31 -13 31 -10.25 26.0625 C-7.77697273 21.14952943 -6.60509323 15.98306077 -5.51855469 10.61938477 C-4.55046813 6.14226008 -3.11745152 3.3507743 0 0 Z " fill="#FBFDFB" transform="translate(1365,722)"/>
<path d="M0 0 C-8.34657616 11.88754787 -17.06822627 19.35607542 -31 24 C-43.9608106 24.89741964 -55.86142492 22.93254768 -67 16 C-68.77734375 14.34375 -68.77734375 14.34375 -70 13 C-64.99538013 2.14863672 -54.71138885 -4.73132945 -44.0078125 -9.2734375 C-28.39450747 -14.92338835 -13.02989191 -8.66292541 0 0 Z " fill="#8ABF54" transform="translate(271,30)"/>
<path d="M0 0 C9.1734162 1.35417096 20.00585618 8.06717594 26 15 C32.78250498 24.23661215 35.35075533 31.43536492 35.3125 42.8125 C35.32861328 43.75931641 35.34472656 44.70613281 35.36132812 45.68164062 C35.36566829 51.98790569 34.39106194 57.16211778 32 63 C20.44429373 61.14771921 9.99788098 53.81529225 3.15234375 44.48046875 C1.62527774 42.03791353 0.28267148 39.57804269 -1 37 C-1.50853516 36.08541016 -1.50853516 36.08541016 -2.02734375 35.15234375 C-6.78832534 25.16964041 -4.48934686 10.99797312 -1 1 C-0.67 0.67 -0.34 0.34 0 0 Z " fill="#8ABF52" transform="translate(133,214)"/>
<path d="M0 0 C11.01948491 1.42375646 20.31014371 8.4802363 27 17 C35.43118863 31.09777162 35.41647247 43.90204013 31.65625 59.5 C31.4396875 60.325 31.223125 61.15 31 62 C21.20492435 60.89222359 11.57086433 54.35790057 5.23046875 46.92578125 C-2.74875119 36.49400107 -5.28736753 24.97846098 -4 12 C-2.03840473 2.03840473 -2.03840473 2.03840473 0 0 Z " fill="#8AC053" transform="translate(295,66)"/>
<path d="M0 0 C7.46704105 1.25308965 13.55877712 7.97674293 17.875 13.8125 C24.33453657 23.87593877 26.67691343 34.15020263 25 46 C22.97077981 53.73432285 19.50445889 60.4363599 15 67 C5.84536851 64.42525989 -0.43181895 55.84108038 -5 48 C-10.15389698 38.17870958 -10.71398237 26.3634337 -7.875 15.6875 C-5.91933832 10.14173475 -2.97030379 5.05624528 0 0 Z " fill="#8BC155" transform="translate(1153,641)"/>
<path d="M0 0 C12.22936162 1.83900175 22.24445351 9.44675133 29.55078125 19.03515625 C35.64897541 28.08350924 37.07533668 37.19003655 36 48 C35.02995351 52.77552371 33.56951439 57.38955147 32 62 C25.08496512 60.13637358 19.75576184 57.22389567 14 53 C13.113125 52.38125 12.22625 51.7625 11.3125 51.125 C3.77366123 44.19741842 -1.55622018 35.29858251 -2.1081543 24.97753906 C-2.1701586 22.71299011 -2.18939137 20.45288725 -2.1875 18.1875 C-2.18814453 17.39230957 -2.18878906 16.59711914 -2.18945312 15.77783203 C-2.13970307 10.25896819 -1.57503315 5.3157369 0 0 Z " fill="#4DBAC3" transform="translate(1277,491)"/>
<path d="M0 0 C4.40453547 9.39634234 4.3786339 22.2520754 1 32 C-4.87875414 45.27884721 -13.52248629 52.19910939 -26.6171875 58.19921875 C-29 59 -29 59 -33 59 C-36.12042492 44.03867694 -36.8027792 31.04517173 -28.578125 17.69140625 C-22.39799935 8.90300176 -11.36415497 -0.87416577 0 0 Z " fill="#2B9BA2" transform="translate(79,179)"/>
<path d="M0 0 C5.27371034 12.26265657 8.95967219 25.66438058 4.75 38.9375 C4.1944987 40.3033197 3.61214224 41.65861004 3 43 C2.61714844 43.97453125 2.61714844 43.97453125 2.2265625 44.96875 C-1.69727287 54.04036939 -9.8989134 62.96116438 -19 67 C-19.99 66.67 -20.98 66.34 -22 66 C-23.18441396 63.63117208 -23.15799256 62.12170001 -23.20874023 59.4777832 C-23.22803085 58.53953201 -23.24732147 57.60128082 -23.26719666 56.63459778 C-23.32495849 52.33171396 -23.37423684 48.02899844 -23.4050293 43.72583008 C-23.42659275 41.45907338 -23.46067561 39.19239958 -23.50756836 36.92602539 C-23.57464119 33.65473303 -23.60204337 30.38516472 -23.62109375 27.11328125 C-23.64892441 26.10574295 -23.67675507 25.09820465 -23.70542908 24.06013489 C-23.68783767 18.01134215 -22.86005391 14.69373741 -18.54777527 10.34997559 C-16.40227328 8.47866044 -14.24211205 6.77175838 -11.875 5.1875 C-10.63363281 4.34251953 -10.63363281 4.34251953 -9.3671875 3.48046875 C-3.80211082 0 -3.80211082 0 0 0 Z " fill="#4CB9C1" transform="translate(23,217)"/>
<path d="M0 0 C1.76170894 3.2922434 2.95513066 6.66704561 4.1875 10.1875 C8.87834336 22.40010384 17.00552944 30.37241718 28.8125 35.875 C33.88245171 38.08441619 38.10678107 39.11035887 43.640625 39.31640625 C44.71054688 39.35830078 45.78046875 39.40019531 46.8828125 39.44335938 C48.54957031 39.50233398 48.54957031 39.50233398 50.25 39.5625 C51.93996094 39.62727539 51.93996094 39.62727539 53.6640625 39.69335938 C56.44258954 39.79932015 59.22120391 39.90139142 62 40 C62.02464638 45.82071622 62.0428343 51.64140234 62.05493164 57.4621582 C62.05997267 59.44393441 62.06680538 61.42570689 62.07543945 63.4074707 C62.08751515 66.24952109 62.09323045 69.09152247 62.09765625 71.93359375 C62.10281754 72.82525742 62.10797882 73.71692108 62.11329651 74.63560486 C62.11349177 76.75740601 62.0621003 78.8791078 62 81 C61 82 61 82 57.84375 82.4375 C52.66204652 81.84771261 50.89367177 79.74235772 47.5 76 C46.93249023 75.40276123 46.36498047 74.80552246 45.78027344 74.19018555 C44.16500252 72.47876756 42.57742222 70.7462805 41 69 C39.97132812 67.86498047 39.97132812 67.86498047 38.921875 66.70703125 C37.82244077 65.46117704 36.73475404 64.20483892 35.66015625 62.9375 C33.72333087 60.67711085 31.70460118 58.50149328 29.6875 56.3125 C24.8898979 50.99359648 20.54290317 45.3737503 16.24511719 39.65234375 C15.00838368 38.01112564 13.75967853 36.37969478 12.5078125 34.75 C3.67629764 23.16768543 -0.48769539 14.73923844 0 0 Z " fill="#1B5E72" transform="translate(1346,623)"/>
<path d="M0 0 C4.79626175 12.39034286 4.26089892 24.82290375 -1 37 C-6.04436808 46.06146363 -14.96345193 54.08306825 -25 57 C-26.32 57 -27.64 57 -29 57 C-33.06866892 47.14316518 -34.12030295 34.57645821 -30.375 24.4375 C-24.96085317 13.26845583 -13.46039024 0 0 0 Z " fill="#2A9A9F" transform="translate(1393,528)"/>
<path d="M0 0 C5.31273396 3.06427352 8.51475528 7.23957833 10.4609375 13.078125 C11.2021638 19.9192792 10.52677641 25.41218175 6.4609375 31.078125 C0.6046353 36.50591728 -4.41644181 38.49141007 -12.421875 38.35546875 C-17.66273914 37.66893489 -21.95011331 35.07185179 -25.4140625 31.140625 C-29.67212875 25.00400011 -30.51865283 19.43020825 -29.5390625 12.078125 C-27.6042174 6.74155224 -23.98880303 2.68884362 -19.04296875 -0.0703125 C-12.97734353 -2.13319284 -6.03280982 -2.19037403 0 0 Z " fill="#1E6F7C" transform="translate(845.5390625,397.921875)"/>
<path d="M0 0 C3.3 -0.0825 6.6 -0.165 10 -0.25 C11.02351562 -0.28641602 12.04703125 -0.32283203 13.1015625 -0.36035156 C20.35913244 -0.44741993 25.5651716 0.96926906 31.05859375 5.81640625 C31.74115234 6.68072266 31.74115234 6.68072266 32.4375 7.5625 C32.91058594 8.14128906 33.38367188 8.72007812 33.87109375 9.31640625 C36.83131899 13.73113663 36.5433555 18.90604219 36 24 C34.3317083 29.3222132 31.75990966 32.9815207 27 36 C23.41429893 37.67726158 20.64779973 38.24149473 16.69921875 38.1953125 C15.37796997 38.18781982 15.37796997 38.18781982 14.0300293 38.18017578 C12.37547729 38.15286377 12.37547729 38.15286377 10.6875 38.125 C7.160625 38.08375 3.63375 38.0425 0 38 C0 25.46 0 12.92 0 0 Z " fill="#207684" transform="translate(676,397)"/>
<path d="M0 0 C6.31821957 5.10358714 12.75422868 12.77676243 13.875 21.046875 C13.69130859 22.16642578 13.69130859 22.16642578 13.50390625 23.30859375 C6.5917483 27.91669905 -4.39120516 27.44381788 -12.49609375 26.30859375 C-21.70989802 23.82120003 -29.26444071 18.20451454 -34.49609375 10.30859375 C-40.49609375 -0.19140625 -40.49609375 -0.19140625 -40.49609375 -3.69140625 C-27.16273 -9.57377261 -11.94375785 -8.09334452 0 0 Z " fill="#2B9CA3" transform="translate(365.49609375,57.69140625)"/>
<path d="M0 0 C11.51557811 4.95394188 18.61922516 11.85841168 23.5390625 23.40234375 C24.67747193 26.85859581 24.80586566 29.43861531 24.40625 33.03515625 C10.78233507 35.52733581 0.87952352 34.85258821 -10.59375 27.03515625 C-17.85514085 20.93054848 -22.99288558 12.30191825 -24.40625 2.84765625 C-24.468125 1.91953125 -24.53 0.99140625 -24.59375 0.03515625 C-17.56360564 -4.22708103 -7.44044618 -2.59690898 0 0 Z " fill="#2D9FA6" transform="translate(1115.59375,690.96484375)"/>
<path d="M0 0 C6.05939367 4.31892953 10.78070432 9.25527242 13.3125 16.3125 C11.58809635 17.30003064 9.85774974 18.27718806 8.125 19.25 C7.16207031 19.79527344 6.19914062 20.34054687 5.20703125 20.90234375 C-2.68940044 24.74932329 -14.30270455 24.84806187 -22.7421875 22.44140625 C-31.12757105 18.45769599 -37.84689842 12.17847756 -42.6875 4.3125 C-42.6875 3.3225 -42.6875 2.3325 -42.6875 1.3125 C-40.60620896 0.32899975 -38.52238641 -0.64914458 -36.4375 -1.625 C-35.27734375 -2.17027344 -34.1171875 -2.71554687 -32.921875 -3.27734375 C-21.96845704 -8.05292815 -10.00991019 -6.21596792 0 0 Z " fill="#8BC155" transform="translate(1233.6875,686.6875)"/>
<path d="M0 0 C0.66515625 0.35320312 1.3303125 0.70640625 2.015625 1.0703125 C3.13710937 1.63105469 3.13710937 1.63105469 4.28125 2.203125 C4.85359375 2.48929688 5.4259375 2.77546875 6.015625 3.0703125 C5.06544056 9.8284993 1.00084248 14.55730215 -4.1328125 18.87890625 C-12.90242456 25.04840526 -21.29978468 27.10115955 -31.984375 26.0703125 C-38.12189239 24.8790644 -43.02255312 22.85696604 -47.984375 19.0703125 C-47.5577369 14.23508075 -45.41806352 11.30822054 -41.984375 8.0703125 C-29.37066829 -2.16859141 -15.57274001 -7.35076889 0 0 Z " fill="#8AC053" transform="translate(60.984375,158.9296875)"/>
<path d="M0 0 C6.82415732 4.81628026 12.77090317 11.44890985 16.84375 18.74609375 C16.34875 20.23109375 16.34875 20.23109375 15.84375 21.74609375 C7.08121707 26.06279418 -4.33128166 27.4110756 -13.71875 24.62109375 C-23.16648442 21.00529416 -29.15497026 15.52674966 -34.15625 6.74609375 C-35.59375 3.12109375 -35.59375 3.12109375 -36.15625 0.74609375 C-34.74146865 0.09614078 -33.32433513 -0.54869347 -31.90625 -1.19140625 C-31.11734375 -1.55105469 -30.3284375 -1.91070312 -29.515625 -2.28125 C-20.06524537 -6.17718465 -8.79820734 -5.11634883 0 0 Z " fill="#8BC056" transform="translate(246.15625,75.25390625)"/>
<path d="M0 0 C4.89234266 1.68321757 7.98049307 4.37838 10.5 8.875 C12.51018088 13.70664552 12.84962802 17.47460796 11.15234375 22.51953125 C8.91892274 27.69046871 6.72697741 31.31420255 1.37890625 33.4453125 C-4.80354234 34.88686866 -10.6676185 35.04124174 -16.5 32.4375 C-21.56797719 27.49622224 -23.23961936 23.94173911 -23.5 16.9375 C-23.31565084 11.84564915 -22.55100352 8.83892272 -19 5 C-12.85030241 -0.41759074 -8.08899633 -0.87174647 0 0 Z " fill="#177F8B" transform="translate(532,363)"/>
<path d="M0 0 C5.13598797 4.04282356 9.08133236 9.14921463 12 15 C12 15.66 12 16.32 12 17 C10.25093469 17.64836042 8.50070781 18.29358784 6.75 18.9375 C5.77546875 19.29714844 4.8009375 19.65679687 3.796875 20.02734375 C-4.80057256 23.01723822 -12.93491813 23.3997274 -21.3125 19.4375 C-29.02861049 15.14068553 -34.17767113 9.95044405 -38 2 C-38 1.01 -38 0.02 -38 -1 C-36.77493102 -1.65357278 -35.54470484 -2.29748233 -34.3125 -2.9375 C-33.62800781 -3.29714844 -32.94351562 -3.65679688 -32.23828125 -4.02734375 C-21.20768651 -8.82074356 -9.68053685 -6.43947605 0 0 Z " fill="#8CC053" transform="translate(502,24)"/>
<path d="M0 0 C11.10881746 0.55544087 20.57794279 4.14204032 28.15234375 12.5 C34.66228753 21.30838059 34.50944621 30.51389893 34 41 C25.49625903 41.8176674 17.31923023 38.88023463 10.5625 33.625 C2.52508506 25.39155055 -0.171591 18.18864599 -0.0625 6.625 C-0.05347656 5.37976563 -0.04445312 4.13453125 -0.03515625 2.8515625 C-0.02355469 1.91054687 -0.01195312 0.96953125 0 0 Z " fill="#49B9C3" transform="translate(158,186)"/>
<path d="M0 0 C7.01282437 4.19528254 12.59525466 9.94574427 16.20703125 17.3203125 C16.90159519 20.08936874 17.10252402 22.44636356 17.20703125 25.3203125 C5.02363224 28.16904045 -4.43155694 28.33103855 -15.41796875 21.7578125 C-21.89743397 17.17339227 -26.46628838 10.9748579 -28.23046875 3.1953125 C-28.41609375 1.9165625 -28.60171875 0.6378125 -28.79296875 -0.6796875 C-19.65308603 -4.18424376 -8.91670693 -4.22915122 0 0 Z " fill="#4BBBC3" transform="translate(1218.79296875,634.6796875)"/>
<path d="M0 0 C9.47544894 0.04110824 16.67576249 3.33379863 23.875 9.4375 C29.48480665 16.20226684 33.30386257 21.43332777 33.1875 30.5625 C33.18105469 31.67753906 33.17460938 32.79257812 33.16796875 33.94140625 C33.02879876 36.47559459 32.73749391 38.58691993 32 41 C23.55016914 41.41371575 15.92158317 37.97394649 9.5 32.5625 C4.40628507 27.68014253 0.39465331 22.16631547 -0.15869141 14.92260742 C-0.19600125 12.6534227 -0.17499263 10.3938962 -0.125 8.125 C-0.11597656 7.34125 -0.10695313 6.5575 -0.09765625 5.75 C-0.07428063 3.83319945 -0.03841653 1.91655809 0 0 Z " fill="#8DC152" transform="translate(1250,532)"/>
<path d="M0 0 C6.63494966 4.47137912 11.69567606 10.21297426 14 18 C13.9921875 20.171875 13.9921875 20.171875 13 22 C5.2011293 25.77247699 -6.1641541 25.43661387 -14.33984375 23.0078125 C-22.14594626 19.13213187 -28.68498351 12.12604043 -32 4 C-31.625 1.25 -31.625 1.25 -31 -1 C-20.352433 -5.41676853 -10.32683467 -5.40783946 0 0 Z " fill="#8DC153" transform="translate(984,741)"/>
<path d="M0 0 C9.0074813 6.75561097 9.0074813 6.75561097 11.82421875 9.41015625 C12.45457031 10.00175537 13.08492187 10.59335449 13.734375 11.20288086 C14.70117188 12.12339233 14.70117188 12.12339233 15.6875 13.0625 C16.36941406 13.70646729 17.05132813 14.35043457 17.75390625 15.01391602 C24.29359892 21.21857099 30.6749532 27.57747816 37 34 C36 36 36 36 34.30102539 36.65429688 C33.57391357 36.84056641 32.84680176 37.02683594 32.09765625 37.21875 C31.29424805 37.42798096 30.49083984 37.63721191 29.66308594 37.8527832 C28.80489258 38.06636475 27.94669922 38.27994629 27.0625 38.5 C25.7616748 38.83100708 25.7616748 38.83100708 24.43457031 39.16870117 C16.10396514 41.26698212 8.63784807 43 0 43 C0 28.81 0 14.62 0 0 Z " fill="#FBFCFB" transform="translate(0,18)"/>
<path d="M0 0 C4.59150334 2.42384082 7.69990494 5.65762237 10.0078125 10.2734375 C10.88110937 16.28671023 10.03090523 20.66133903 6.47265625 25.609375 C3.43626608 29.05871424 0.70491906 30.04416266 -3.796875 30.65234375 C-9.10080952 30.96317283 -12.9394521 30.98179626 -17.1171875 27.4609375 C-20.8520275 23.69822556 -22.3145684 20.85954644 -22.4296875 15.5234375 C-22.33942218 10.54680955 -21.76435294 7.38366887 -18.46875 3.609375 C-13.26350657 -1.10013096 -6.61869298 -2.41387626 0 0 Z " fill="#2B9AA0" transform="translate(187.9921875,48.7265625)"/>
<path d="M0 0 C7 0 7 0 9.13989258 1.78833008 C9.71892334 2.60712646 10.2979541 3.42592285 10.89453125 4.26953125 C11.86229492 5.60274414 11.86229492 5.60274414 12.84960938 6.96289062 C13.49736328 7.90326172 14.14511719 8.84363281 14.8125 9.8125 C15.47958984 10.74126953 16.14667969 11.67003906 16.83398438 12.62695312 C19.28144339 16.0474685 21.66698996 19.50048494 24 23 C24.33 15.41 24.66 7.82 25 0 C27.64 0 30.28 0 33 0 C33 12.54 33 25.08 33 38 C26 38 26 38 24.29077148 36.84179688 C23.90477783 36.30619141 23.51878418 35.77058594 23.12109375 35.21875 C22.67741455 34.62739258 22.23373535 34.03603516 21.77661133 33.42675781 C21.33470459 32.79092773 20.89279785 32.15509766 20.4375 31.5 C19.96787842 30.8615918 19.49825684 30.22318359 19.0144043 29.56542969 C18.08425544 28.29822845 17.1628349 27.02456643 16.25097656 25.74414062 C14.6644419 23.53215709 12.98848816 21.3946294 11.3125 19.25 C9 16 9 16 9 14 C8.34 14 7.68 14 7 14 C7 21.92 7 29.84 7 38 C4.69 38 2.38 38 0 38 C0 25.46 0 12.92 0 0 Z " fill="#1E727D" transform="translate(775,397)"/>
<path d="M0 0 C12.21 0 24.42 0 37 0 C43.86788922 16.02507485 43.86788922 16.02507485 42.8984375 20.890625 C41.0791049 25.16210153 38.09177723 28.58532175 35 32 C32.03179742 30.65525572 29.8597265 29.14559865 27.49609375 26.91015625 C26.51624512 25.98843628 26.51624512 25.98843628 25.51660156 25.0480957 C24.83049805 24.39284912 24.14439453 23.73760254 23.4375 23.0625 C22.72948242 22.3924292 22.02146484 21.7223584 21.29199219 21.03198242 C15.42329206 15.45645139 9.67889375 9.76824697 4 4 C2.68 2.68 1.36 1.36 0 0 Z " fill="#FAFCFB" transform="translate(32,0)"/>
<path d="M0 0 C2.05078125 0.03255208 4.1015625 0.06510417 6.15234375 0.09765625 C8.29309027 5.18610445 10.42921631 10.2764574 12.56103516 15.36865234 C13.28729796 17.10160964 14.01483293 18.83403434 14.74365234 20.56591797 C15.7894644 23.05167805 16.83072495 25.53930146 17.87109375 28.02734375 C18.19920044 28.80447723 18.52730713 29.58161072 18.86535645 30.3822937 C21.15234375 35.86991284 21.15234375 35.86991284 21.15234375 38.09765625 C18.51234375 38.09765625 15.87234375 38.09765625 13.15234375 38.09765625 C11.89569397 35.19165364 11.15234375 33.30161041 11.15234375 30.09765625 C4.88234375 30.09765625 -1.38765625 30.09765625 -7.84765625 30.09765625 C-8.50765625 32.73765625 -9.16765625 35.37765625 -9.84765625 38.09765625 C-12.48765625 38.09765625 -15.12765625 38.09765625 -17.84765625 38.09765625 C-15.54700329 30.69695442 -12.62229092 23.61802773 -9.54931641 16.51074219 C-8.71310051 14.57554202 -7.88353608 12.63758421 -7.0546875 10.69921875 C-2.51258131 0.13280028 -2.51258131 0.13280028 0 0 Z " fill="#1F7079" transform="translate(910.84765625,396.90234375)"/>
<path d="M0 0 C2.64 0 5.28 0 8 0 C9.66133223 3.80139907 11.31501373 7.60601349 12.9621582 11.41357422 C13.52166985 12.7041618 14.08314091 13.99390198 14.64672852 15.28271484 C17.9024997 22.73191932 20.93405135 30.12019361 23 38 C20.36 38 17.72 38 15 38 C14.34 35.36 13.68 32.72 13 30 C7.06 30.33 1.12 30.66 -5 31 C-5.99 33.31 -6.98 35.62 -8 38 C-10.31 38 -12.62 38 -15 38 C-14.40963266 33.42627025 -13.18222607 29.65374107 -11.34765625 25.4296875 C-11.08746201 24.82617462 -10.82726776 24.22266174 -10.55918884 23.6008606 C-9.73317717 21.68947438 -8.8978819 19.7823065 -8.0625 17.875 C-7.50527193 16.58749367 -6.94862588 15.29973528 -6.39257812 14.01171875 C-2.04983565 3.98575789 -2.04983565 3.98575789 0 0 Z " fill="#1C727D" transform="translate(731,397)"/>
<path d="M0 0 C4.52855617 2.59134048 7.65678301 5.26871078 9.921875 10.08203125 C10.77240675 15.94124994 9.86534564 19.52644401 6.46875 24.3828125 C3.03059469 28.15957401 -1.21538781 29.2093541 -6.140625 29.51953125 C-11.91387756 28.87805874 -14.62471217 26.68843491 -18.453125 22.45703125 C-20.65925552 17.87506786 -20.86778518 14.08049879 -20.078125 9.08203125 C-16.49518259 1.34287564 -8.43458546 -3.72580373 0 0 Z " fill="#4DBAC2" transform="translate(1264.078125,658.91796875)"/>
<path d="M0 0 C0 7.59 0 15.18 0 23 C-9.05118564 27.02274917 -16.18672561 29.0985638 -25.828125 26.12890625 C-27.96809986 25.186627 -29.98052503 24.17488146 -32 23 C-32.66 22.67 -33.32 22.34 -34 22 C-33.5096132 17.43122963 -31.85153003 15.25983432 -28.75 11.9375 C-27.98171875 11.10089844 -27.2134375 10.26429688 -26.421875 9.40234375 C-17.87356093 0.9229677 -11.77997526 -0.39707782 0 0 Z " fill="#8BC055" transform="translate(1408,578)"/>
<path d="M0 0 C4.78989238 2.15768984 7.67435806 4.39627118 9.90234375 9.31640625 C10.87296132 14.29890979 10.30580679 18.2494066 7.83984375 22.69140625 C5.13086081 26.52213706 2.47641531 28.05459341 -2.09765625 29.31640625 C-6.38497702 29.84291933 -8.45292236 29.65773596 -12.28515625 27.62890625 C-15.9980398 24.57609089 -18.56698801 21.90841097 -20.09765625 17.31640625 C-20.63795738 11.58921429 -19.74929155 8.75758431 -16.09765625 4.31640625 C-10.96434709 -0.20579468 -6.94455612 -2.2631235 0 0 Z " fill="#4FBCC5" transform="translate(365.09765625,100.68359375)"/>
<path d="M0 0 C4.01125177 2.04209181 6.63010473 4.1946253 9 8 C9.87141484 13.1970867 9.59466314 17.71918709 7.375 22.5 C3.51073716 26.5676451 0.05798327 28.1479244 -5.5 28.4375 C-9.9959132 28.26341582 -12.6106124 27.06658878 -16 24 C-19.29799116 19.27287934 -19.90379228 14.60351216 -19 9 C-14.81715646 0.63431292 -8.90183583 -1.29818439 0 0 Z " fill="#1B7F8B" transform="translate(565,323)"/>
<path d="M0 0 C3.5520858 2.31657769 5.60510254 4.26986875 7.875 7.875 C8.84728651 12.51661127 8.36075881 16.53708435 6.1875 20.75 C3.7738414 24.01170081 2.65631552 25.47755731 -1.125 26.875 C-6.17226882 27.55135093 -9.95120111 27.45122855 -14.5625 25.1875 C-17.92156012 22.15615306 -19.81855631 20.13360352 -20.44140625 15.54296875 C-20.64303106 11.20478333 -20.37700902 8.40809601 -18.5 4.4375 C-13.1914443 -1.2901522 -7.36642151 -2.65191174 0 0 Z " fill="#8CC052" transform="translate(500.125,323.125)"/>
<path d="M0 0 C0.70451828 8.98260805 -1.41353593 18.37079662 -7.125 25.5 C-11.04242064 29.49356921 -15.72974962 32.16379886 -21 34 C-22.32 34 -23.64 34 -25 34 C-25.2325602 29.60505939 -25.37450074 25.21169714 -25.5 20.8125 C-25.56703125 19.56662109 -25.6340625 18.32074219 -25.703125 17.03710938 C-25.89650736 8.02065699 -25.89650736 8.02065699 -23.30224609 5.06713867 C-21.22898613 3.75006773 -19.30937363 2.82465911 -17 2 C-15.88625 1.566875 -14.7725 1.13375 -13.625 0.6875 C-9.03722168 -0.18259589 -4.6530021 -0.16851919 0 0 Z " fill="#8BC255" transform="translate(25,131)"/>
<path d="M0 0 C8.03112224 0.43806121 13.67990249 3.1963621 19.8125 8.375 C26.8805825 16.856699 26.46031983 23.34871066 26 34 C18.41388452 34.30716787 12.91558639 32.37494057 7.1328125 27.390625 C-0.44697126 19.169765 -0.40984851 10.80785707 0 0 Z " fill="#309BA4" transform="translate(1150,562)"/>
<path d="M0 0 C6.30846401 3.67516687 10.11161635 9.0206361 12 16 C12.14648438 18.64526367 12.14648438 18.64526367 12.09375 21.29296875 C12.07344727 22.62171021 12.07344727 22.62171021 12.05273438 23.97729492 C12.03533203 24.6447876 12.01792969 25.31228027 12 26 C8.62546102 26.14611313 5.25174234 26.23433467 1.875 26.3125 C0.92367188 26.35439453 -0.02765625 26.39628906 -1.0078125 26.43945312 C-8.96424444 26.57758562 -8.96424444 26.57758562 -12.59375 23.59375 C-16.45550837 19.43107539 -17.47954808 16.8678214 -17.31640625 11.02734375 C-16.62899904 6.62284569 -14.06488762 3.88740635 -10.75 1.125 C-7.02156314 -0.40026963 -3.89859077 -0.98362235 0 0 Z " fill="#8EC156" transform="translate(1124,582)"/>
<path d="M0 0 C3.35066172 1.385988 4.83371851 2.7756177 6.6875 5.875 C7.10386719 6.55304688 7.52023438 7.23109375 7.94921875 7.9296875 C10.64799791 13.24698474 10.81061746 19.17127443 10 25 C7.36228686 31.37979751 3.19051489 36.51728259 -2 41 C-2.66 41 -3.32 41 -4 41 C-10.00750368 33.70129078 -12.0328935 26.78905466 -11.5546875 17.42578125 C-10.30162688 9.68680826 -5.55859686 5.17078778 0 0 Z " fill="#2B9AA1" transform="translate(104,258)"/>
<path d="M0 0 C5.07284809 4.5091983 8.47025942 9.02427023 9.38671875 15.90234375 C9.7026844 24.54236994 7.75276712 30.18189282 2 36.5625 C1.01 37.366875 0.02 38.17125 -1 39 C-4.01298667 38.67983443 -4.87436781 38.12563219 -7.0625 35.9375 C-11.15520367 29.73243314 -13.17656373 23.46464325 -12 16 C-9.79110521 9.50394919 -5.71224554 3.80816369 0 0 Z " fill="#2D9BA1" transform="translate(1336,468)"/>
<path d="M0 0 C3.68499197 -0.3506947 5.51802906 -0.31029078 8.67578125 1.72265625 C9.98095703 2.88087891 9.98095703 2.88087891 11.3125 4.0625 C12.25609375 4.87847656 13.1996875 5.69445312 14.171875 6.53515625 C15.10515625 7.34855469 16.0384375 8.16195313 17 9 C18.6767355 10.34684523 20.36323213 11.68169702 22.0625 13 C23.13177734 13.8353125 23.13177734 13.8353125 24.22265625 14.6875 C27.75957904 17.29938144 30.26383548 17.10525651 34.625 17.0625 C36.40777344 17.04896484 36.40777344 17.04896484 38.2265625 17.03515625 C39.59941406 17.01775391 39.59941406 17.01775391 41 17 C37.69128114 26.435976 30.11199482 35.99383844 23 43 C22.67 43 22.34 43 22 43 C21.99613281 41.98292969 21.99613281 41.98292969 21.9921875 40.9453125 C21.39607043 26.59876171 12.28583186 18.772665 2.41699219 9.46704102 C1 8 1 8 -1 5 C-0.625 2.3125 -0.625 2.3125 0 0 Z " fill="#1C7985" transform="translate(528,341)"/>
<path d="M0 0 C2.97 0 5.94 0 9 0 C12.3 8.58 15.6 17.16 19 26 C21.90174436 19.6161624 24.7601416 13.32471787 27.3125 6.8125 C27.57611328 6.14669922 27.83972656 5.48089844 28.11132812 4.79492188 C28.7433646 3.19759333 29.37207288 1.59894844 30 0 C32.64 0 35.28 0 38 0 C35.42635209 8.22664297 32.13647525 16.11978478 28.8125 24.0625 C28.24775709 25.41849914 27.68330172 26.77461807 27.11914062 28.13085938 C25.74940424 31.42195985 24.37579019 34.71142484 23 38 C20.36 38 17.72 38 15 38 C13.02339173 33.07083549 11.0479147 28.14121973 9.07348633 23.21118164 C8.40159713 21.53397356 7.72939854 19.85688938 7.05688477 18.17993164 C6.09049487 15.77001912 5.12521713 13.35966374 4.16015625 10.94921875 C3.85908463 10.19912033 3.558013 9.44902191 3.24781799 8.67619324 C2.09759858 5.80079974 0.97958565 2.93875696 0 0 Z " fill="#1B7883" transform="translate(613,397)"/>
<path d="M0 0 C2.64 0 5.28 0 8 0 C18 22.83333333 18 22.83333333 18 27 C18.66 27 19.32 27 20 27 C20.08121094 26.23429687 20.16242187 25.46859375 20.24609375 24.6796875 C21.28746447 19.59693508 23.17146485 14.94566992 25.0625 10.125 C25.43955078 9.15046875 25.81660156 8.1759375 26.20507812 7.171875 C27.13164376 4.77922451 28.06340791 2.38873946 29 0 C31.97 0 34.94 0 38 0 C27.29949685 27.16403693 27.29949685 27.16403693 22 38 C19.69 38 17.38 38 15 38 C12.85925348 32.9115518 10.72312744 27.82119885 8.59130859 22.72900391 C7.86504579 20.99604661 7.13751082 19.26362191 6.40869141 17.53173828 C5.36287935 15.0459782 4.3216188 12.55835479 3.28125 10.0703125 C2.78908997 8.90461227 2.78908997 8.90461227 2.2869873 7.71536255 C0 2.22774341 0 2.22774341 0 0 Z " fill="#1E6E78" transform="translate(858,397)"/>
<path d="M0 0 C3.4285785 2.02008139 6.20847086 4.41694171 8 8 C8.39231417 12.70777 8.47336758 15.07079697 6.3125 19.3125 C3.41430219 22.68067583 1.36159162 24.6064014 -3.109375 25.3515625 C-7.30455396 25.61904035 -10.11327254 25.384361 -13.4375 22.6875 C-16.67020189 19.29710534 -18.2886294 17.28772321 -18.3125 12.625 C-18.20841009 8.61753855 -17.67099925 6.13151636 -15 3 C-10.68372953 -0.79308617 -5.47139336 -1.08066401 0 0 Z " fill="#8CC053" transform="translate(351,150)"/>
<path d="M0 0 C3.92465988 2.1132784 6.63811003 4.22914397 9 8 C9.90436131 12.93732391 9.4874735 16.98894385 7.3125 21.5 C3.84696677 25.24652241 0.96909107 26.0761073 -4 26.375 C-7.13565474 26.29217138 -8.06094337 25.96290404 -10.875 24.25 C-15.01374818 19.86779604 -15.38806961 16.27420828 -15.25 10.40625 C-14.91802177 7.21095956 -14.12105635 5.41361584 -12 3 C-8.06805815 -0.1673976 -4.97806095 -0.61134082 0 0 Z " fill="#F8FBFB" transform="translate(839,403)"/>
<path d="M0 0 C0.7578125 2.18359375 0.7578125 2.18359375 1 5 C-0.6953125 7.53515625 -0.6953125 7.53515625 -3.125 10.0625 C-3.91132812 10.89910156 -4.69765625 11.73570312 -5.5078125 12.59765625 C-8 15 -8 15 -10.63671875 17.09375 C-17.37453432 22.52854999 -18.70627962 29.10574368 -19.73828125 37.4375 C-19.82464844 38.283125 -19.91101563 39.12875 -20 40 C-24.38588579 35.92161174 -27.72176361 31.41389993 -31.125 26.5 C-31.64964844 25.75363281 -32.17429687 25.00726563 -32.71484375 24.23828125 C-38.44484026 16.04221029 -38.44484026 16.04221029 -40 13 C-39.67 12.34 -39.34 11.68 -39 11 C-38.360625 11.495 -37.72125 11.99 -37.0625 12.5 C-32.37686361 14.79500558 -28.04977093 14.8515202 -23.02734375 13.44921875 C-17.22788463 10.93651675 -13.09465849 6.49487342 -8.7109375 2.046875 C-5.51608731 -0.365375 -3.90897389 -0.43560413 0 0 Z " fill="#8ABC4F" transform="translate(522,342)"/>
<path d="M0 0 C3.45658479 2.04573386 4.7785359 3.66780385 7 7 C7.76768116 11.6864257 7.40885085 15.19690011 5.25 19.4375 C2.65393889 22.39412515 0.73176435 23.70087707 -3.1484375 24.37109375 C-7.28770068 24.49454546 -10.12211901 24.39741725 -13.4375 21.75 C-16.81439385 18.12601636 -17.82874435 16.54130086 -18.375 11.625 C-17.93060645 7.32919568 -16.70408706 5.32216411 -14 2 C-9.54806278 -0.96795815 -5.22190854 -0.63458039 0 0 Z " fill="#4DBCC5" transform="translate(434,43)"/>
<path d="M0 0 C8.61313144 -0.60750927 16.03138606 -0.62269031 23 5 C27.63718464 10.51730335 29.73509331 15.84751925 30 23 C13.77377088 23.82042732 13.77377088 23.82042732 8 19 C2.53870724 13.13462056 -0.11032526 8.05374411 0 0 Z " fill="#8DC155" transform="translate(290,171)"/>
<path d="M0 0 C3.78580423 2.03850997 7.05061257 4.10122513 9 8 C9.40258518 12.22714439 9.47401512 14.84129638 7.875 18.75 C4.57875265 22.70549682 1.63999354 24.76571521 -3.5 25.5 C-7.6735008 24.9037856 -9.78241364 23.69379323 -13 21 C-15.59055168 16.79696207 -15.55001968 12.80407818 -15 8 C-12.17401056 1.15813083 -7.15470855 -0.87864842 0 0 Z " fill="#4CBCC4" transform="translate(1045,698)"/>
<path d="M0 0 C13.65714286 0 13.65714286 0 18 4 C20.15164703 7.22747055 20.27245079 8.20505639 20.25 11.9375 C20.25515625 12.79214844 20.2603125 13.64679688 20.265625 14.52734375 C19.97992676 17.18685823 19.43698932 18.75560531 18 21 C11.53008293 25.95568116 9.12273723 25 0 25 C0 16.75 0 8.5 0 0 Z " fill="#F9FBFB" transform="translate(684,404)"/>
<path d="M0 0 C2.70401421 2.2009418 4.50679682 3.74453195 4.953125 7.30859375 C4.94796875 8.07300781 4.9428125 8.83742187 4.9375 9.625 C4.94265625 10.38683594 4.9478125 11.14867187 4.953125 11.93359375 C4.5276895 15.5435391 3.38375644 17.59673696 0.625 19.9375 C-3.4379927 21.66643306 -6.96465163 22.02803308 -11.3125 21.1875 C-14.38015423 19.46553193 -16.71571354 17.38107293 -18.3125 14.1875 C-18.71021327 9.41494077 -18.78703429 7.10267328 -16.5625 2.8125 C-11.88076907 -2.64951942 -6.46992224 -3.54014613 0 0 Z " fill="#63AA63" transform="translate(63.3125,127.8125)"/>
<path d="M0 0 C3.12578143 1.6720747 5.39281175 3.7856235 7 7 C7.57791538 14.0505676 7.57791538 14.0505676 5.25 17.875 C1.16162911 21.73623917 -2.29810681 22.4943918 -7.80859375 22.39453125 C-11.33265514 21.76007457 -12.89734758 19.75973131 -15 17 C-16.72869779 13.54260443 -16.48966895 9.78024432 -16 6 C-11.93281758 -0.50749187 -7.28256634 -1.02602772 0 0 Z " fill="#2C99A1" transform="translate(47,271)"/>
<path d="M0 0 C3.70390021 2.02666238 5.65363011 3.48044516 8 7 C8.72517392 11.50282411 8.60000036 14.99285654 6.25 18.9375 C2.92728316 21.98332377 1.13018796 22.85349415 -3.375 23.4375 C-8.23844407 22.85053261 -9.60199844 21.47702486 -13 18 C-15.31635979 14.73603847 -15.61797688 11.93960263 -15 8 C-10.82720639 1.75360956 -7.70723921 -0.64226993 0 0 Z " fill="#2F9AA1" transform="translate(1400,475)"/>
<path d="M0 0 C3.62342508 1.6470114 6.16816086 3.4327343 8 7 C8.84457478 13.54545455 8.84457478 13.54545455 6.9453125 16.81640625 C4.61493232 19.67767186 2.75296244 21.78992002 -0.98828125 22.23828125 C-5.15410332 22.3713075 -7.37869331 22.38831668 -11 20.125 C-14.47902736 16.42853343 -14.38781166 13.40391772 -14.359375 8.484375 C-14 6 -14 6 -11.625 2.9375 C-7.49664944 -0.10961589 -5.16178257 -0.34995136 0 0 Z " fill="#238D95" transform="translate(259,204)"/>
<path d="M0 0 C3.0625 2.4375 3.0625 2.4375 5 5 C5.33 5.33 5.66 5.66 6 6 C6.57002878 10.52285132 6.61157067 13.97343495 4.25 17.9375 C0.92728316 20.98332377 -0.86981204 21.85349415 -5.375 22.4375 C-10.1853299 21.85694294 -11.61392593 20.38607407 -15 17 C-16.72869779 13.54260443 -16.48966895 9.78024432 -16 6 C-11.95035341 -0.47943454 -7.26674713 -1.06259038 0 0 Z " fill="#7EB856" transform="translate(1382,612)"/>
<path d="M0 0 C3.6578218 2.03993908 5.66946174 3.50419262 8 7 C8.48256365 11.26264558 8.26873267 13.49132744 6.25 17.3125 C3.26087444 20.88284442 1.66690646 21.74634032 -2.875 22.4375 C-7.2682371 21.82244681 -8.84565969 20.08098355 -12 17 C-13.61429923 13.77140153 -13.59570657 10.49006347 -13 7 C-9.78955153 1.40567374 -6.38167969 -0.61362305 0 0 Z " fill="#8FC054" transform="translate(531,313)"/>
<path d="M0 0 C3.72586959 2.50925911 4.74211376 4.16566218 6.0625 8.4375 C5.98493382 12.85877235 4.80829096 14.64565246 2 18 C-1.68497796 20.45665197 -4.71971786 20.70086491 -9 20 C-11.8100346 18.20636089 -13.50940468 16.98119065 -15 14 C-15.64233846 9.3292818 -15.62020335 6.0129988 -13.125 1.9375 C-8.72930779 -0.78782917 -5.04149985 -1.01823396 0 0 Z " fill="#27939B" transform="translate(1200,535)"/>
<path d="M0 0 C13.53 0 27.06 0 41 0 C35.35205993 5.64794007 35.35205993 5.64794007 31.9375 7.25 C31.28652344 7.56453125 30.63554687 7.8790625 29.96484375 8.203125 C22.19216228 11.355465 13.6961554 10.78793561 5.94921875 7.8671875 C3.49291818 6.77440448 1.2252947 5.5074577 -1 4 C-0.67 2.68 -0.34 1.36 0 0 Z " fill="#8CBF52" transform="translate(455,0)"/>
<path d="M0 0 C3.94875513 2.45865885 5.66872408 3.98776803 7.125 8.4375 C6.97177911 12.80429526 5.76736304 14.67916436 3 18 C-0.20173254 19.60086627 -3.52577059 19.49917089 -7 19 C-9.8100346 17.20636089 -11.50940468 15.98119065 -13 13 C-13.40417552 10.03604618 -13.56382171 7.91095074 -11.953125 5.30859375 C-8.19027184 0.71569946 -5.93582549 -0.68490294 0 0 Z " fill="#8EC054" transform="translate(416,86)"/>
<path d="M0 0 C2.6875 1.5 2.6875 1.5 4 4 C4.61089984 8.81083621 4.73857492 10.8428993 2.125 14.9375 C-0.60897987 17.5910687 -1.47384331 17.95036258 -5.3125 18.3125 C-9.57536111 17.95124058 -11.01992054 16.98007946 -14 14 C-15.60813266 10.78373469 -15.45492615 7.48776713 -15 4 C-12.02411304 -1.66835611 -5.60637771 -0.81671056 0 0 Z " fill="#69AF5F" transform="translate(328,0)"/>
<path d="M0 0 C3.25457 1.38464807 6.36090674 2.72181349 8 6 C8.46315789 12.36842105 8.46315789 12.36842105 6.625 14.875 C3.53582163 17.01366195 0.94653607 17.44940555 -2.83203125 17.421875 C-6.79869478 16.64998372 -9.36488453 13.92711475 -12 11 C-14 8 -14 8 -14 6.0625 C-11.2370652 0.36394698 -5.80732819 -0.81506361 0 0 Z " fill="#47B6C0" transform="translate(1170,602)"/>
<path d="M0 0 C2.31 0 4.62 0 7 0 C7 12.54 7 25.08 7 38 C4.69 38 2.38 38 0 38 C0 25.46 0 12.92 0 0 Z " fill="#197280" transform="translate(658,397)"/>
<path d="M0 0 C4.14866582 0.66674986 5.81886615 1.31264078 8.5 4.5625 C9.15466318 7.36491781 9.11113838 9.75472271 8.5 12.5625 C6.36398066 15.89469018 4.8672811 16.45565459 1.0625 17.5625 C-2.5 17.5625 -2.5 17.5625 -5.375 15.75 C-7.84519031 13.20715703 -8.40858082 12.24814385 -8.875 8.75 C-8.5 5.5625 -8.5 5.5625 -6.4375 2.6875 C-3.5 0.5625 -3.5 0.5625 0 0 Z " fill="#8BC054" transform="translate(255.5,104.4375)"/>
<path d="M0 0 C3.79974528 1.3919859 6.47264399 3.30252915 8.9375 6.5625 C10 9 10 9 10 12 C5.79760043 14.10119979 1.62347645 14.99636355 -3 14 C-5.85326533 12.41181008 -7.99983825 10.58160411 -10 8 C-10.9375 4.625 -10.9375 4.625 -11 2 C-7.27219668 -0.48520222 -4.31810772 -0.64177381 0 0 Z " fill="#90C157" transform="translate(306,149)"/>
<path d="M0 0 C1.91015625 0.4453125 1.91015625 0.4453125 4.47265625 2.5078125 C6.37466577 6.3945276 6.18079195 8.33443229 4.91015625 12.4453125 C2.78515625 14.9453125 2.78515625 14.9453125 -0.08984375 16.4453125 C-3.86894991 16.4453125 -6.09677408 16.27820964 -9.02734375 13.8203125 C-10.52684241 10.46849197 -10.54361848 8.07551032 -10.08984375 4.4453125 C-7.53315462 0.29069266 -4.61630624 -0.25885829 0 0 Z " fill="#90C256" transform="translate(1117.08984375,635.5546875)"/>
<path d="M0 0 C2.875 1.625 2.875 1.625 5 4 C5.6875 6.9375 5.6875 6.9375 5 10 C2.375 12.9375 2.375 12.9375 -1 15 C-5.02559668 15.16102387 -6.44446153 14.49856017 -9.4375 11.8125 C-11 9 -11 9 -11 5.875 C-9.0636031 0.30785891 -5.66566834 -0.80938119 0 0 Z " fill="#58C0C9" transform="translate(1369,494)"/>
<path d="M0 0 C2.375 1.5625 2.375 1.5625 4 4 C4.56288002 7.94016013 4.60396028 10.05782196 2.4375 13.4375 C-0.96719488 15.61999672 -3.03430012 15.63734462 -7 15 C-9.5 12.9375 -9.5 12.9375 -11 10 C-11 6.1862249 -10.84985071 3.97575452 -8.3125 1.0625 C-5.26397123 -0.33817538 -3.32073048 -0.4842732 0 0 Z " fill="#4FBEC4" transform="translate(76,259)"/>
<path d="M0 0 C2.5 1.5625 2.5 1.5625 4 4 C3.93913078 7.46954545 3.6274029 9.91947278 1.875 12.9375 C-1.18452459 14.6712306 -3.56817525 14.42145216 -7 14 C-9.4375 12.375 -9.4375 12.375 -11 10 C-11.60605429 6.36367425 -11.47161336 4.71685231 -9.4375 1.625 C-6.06489221 -0.62340519 -3.97487617 -0.56783945 0 0 Z " fill="#2E9EA5" transform="translate(195,238)"/>
<path d="M0 0 C2.9375 2.125 2.9375 2.125 5 5 C5 8.20731148 4.50971468 10.1005035 2.9375 12.875 C-0.23572732 14.71751909 -3.43758579 14.66053097 -7 14 C-9.6923481 11.81246717 -9.93936827 10.41576045 -10.4375 7 C-10 4 -10 4 -8.375 1.625 C-5.24988831 -0.51323431 -3.71837535 -0.6829669 0 0 Z " fill="#48BEC6" transform="translate(233,226)"/>
<path d="M0 0 C3.59981466 1.44775155 5.15103283 3.20954292 7.25 6.4375 C7.77078125 7.21996094 8.2915625 8.00242187 8.828125 8.80859375 C10 11 10 11 10 14 C4.06 14 -1.88 14 -8 14 C-6.43444329 9.30332986 -5.72642188 7.22027106 -2.875 3.625 C-2.33617187 2.93664062 -1.79734375 2.24828125 -1.2421875 1.5390625 C-0.62730469 0.77722656 -0.62730469 0.77722656 0 0 Z " fill="#86BD4F" transform="translate(1360,754)"/>
<path d="M0 0 C2.8125 0.875 2.8125 0.875 4.8125 2.875 C5.28633353 6.50772373 5.2716452 8.22879564 3.125 11.25 C0.8125 12.875 0.8125 12.875 -1.6875 13.375 C-5.0251027 12.70747946 -6.19350369 11.60751347 -8.1875 8.875 C-8.75 6.375 -8.75 6.375 -8.1875 3.875 C-5.4432202 0.80786375 -4.16206734 -0.16321833 0 0 Z " fill="#4DBEC7" transform="translate(273.1875,176.125)"/>
<path d="M0 0 C0 0.33 0 0.66 0 1 C-1.51013672 1.15033691 -1.51013672 1.15033691 -3.05078125 1.30371094 C-6.86910969 1.68703801 -10.68567776 2.08604569 -14.50195312 2.48925781 C-16.13824636 2.66005152 -17.7749607 2.82686857 -19.41210938 2.98925781 C-29.44048055 3.98716698 -38.96411268 5.48842883 -48.6796875 8.20410156 C-51.62040875 8.90900974 -53.99932931 9.16971474 -57 9 C-55.61701124 6.23402247 -54.33532348 6.11280283 -51.4375 5.0625 C-34.98068762 -0.16219549 -17.11597511 -0.51120722 0 0 Z " fill="#D8E4D1" transform="translate(1257,759)"/>
<path d="M0 0 C1.9375 1.0625 1.9375 1.0625 3 3 C2.875 6.5625 2.875 6.5625 2 10 C-1.22143276 12.14762184 -2.2595467 12.561068 -6 12 C-8.2855347 9.87208838 -8.92303658 8.52591672 -9.375 5.4375 C-9 3 -9 3 -7.875 1.1875 C-5.12844028 -0.55198782 -3.18153026 -0.39769128 0 0 Z " fill="#25828C" transform="translate(456,27)"/>
<path d="M0 0 C1.9375 1.0625 1.9375 1.0625 3 3 C2.55555556 9.44444444 2.55555556 9.44444444 1 11 C-4.8410596 11.37086093 -4.8410596 11.37086093 -7 11 C-9 8 -9 8 -8.75 4.375 C-8.5025 3.26125 -8.255 2.1475 -8 1 C-5.20129973 -0.39935013 -3.09501208 -0.25265405 0 0 Z " fill="#248892" transform="translate(1013,738)"/>
<path d="M0 0 C7.40640809 -0.4856661 7.40640809 -0.4856661 10.0625 1.6875 C11.24408113 4.6020668 11.00932746 6.04965818 10 9 C8 11 8 11 5.375 11.125 C4.59125 11.08375 3.8075 11.0425 3 11 C2.67 12.32 2.34 13.64 2 15 C1.34 15 0.68 15 0 15 C0 10.05 0 5.1 0 0 Z " fill="#54A5A5" transform="translate(640,471)"/>
<path d="M0 0 C0.66 0 1.32 0 2 0 C2 4.95 2 9.9 2 15 C0.72125 15.061875 -0.5575 15.12375 -1.875 15.1875 C-2.59429688 15.22230469 -3.31359375 15.25710938 -4.0546875 15.29296875 C-4.69664062 15.19628906 -5.33859375 15.09960938 -6 15 C-8.15502531 11.76746204 -8.46856135 10.74849077 -8 7 C-6.8125 5.1875 -6.8125 5.1875 -5 4 C-2.3125 3.8125 -2.3125 3.8125 0 4 C0 2.68 0 1.36 0 0 Z " fill="#50A4A2" transform="translate(745,467)"/>
<path d="M0 0 C3.30616284 3.80208727 7 9.83581485 7 15 C2.71 15 -1.58 15 -6 15 C-4.32819664 9.74576086 -2.62305301 4.87138415 0 0 Z " fill="#E7EFF1" transform="translate(912,406)"/>
<path d="M0 0 C0.66 0 1.32 0 2 0 C2 4.95 2 9.9 2 15 C0.72125 15.061875 -0.5575 15.12375 -1.875 15.1875 C-2.59429688 15.22230469 -3.31359375 15.25710938 -4.0546875 15.29296875 C-4.69664062 15.19628906 -5.33859375 15.09960938 -6 15 C-8.15502531 11.76746204 -8.46856135 10.74849077 -8 7 C-6.75 5.1875 -6.75 5.1875 -5 4 C-3.68 4 -2.36 4 -1 4 C-0.67 2.68 -0.34 1.36 0 0 Z " fill="#4BA29E" transform="translate(815,467)"/>
<path d="M0 0 C0.66 0 1.32 0 2 0 C2.83739781 2.1234016 3.66980283 4.2487728 4.5 6.375 C4.9640625 7.55835938 5.428125 8.74171875 5.90625 9.9609375 C7 13 7 13 7 15 C3.04 15 -0.92 15 -5 15 C-4.23239022 11.16195111 -3.40495674 8.23779856 -1.9375 4.6875 C-1.39416016 3.36298828 -1.39416016 3.36298828 -0.83984375 2.01171875 C-0.56269531 1.34785156 -0.28554688 0.68398438 0 0 Z " fill="#E2ECEE" transform="translate(734,406)"/>
<path d="M0 0 C3.38939556 2.13679285 4.72582557 3.1774767 6 7 C-0.27 7 -6.54 7 -13 7 C-9.83400108 0.66800216 -7.15303534 -0.87844294 0 0 Z " fill="#8DC257" transform="translate(1154,761)"/>
<path d="M0 0 C1.8125 1.1875 1.8125 1.1875 3 3 C3.42822025 5.85480169 3.40659584 7.34492892 1.875 9.8125 C-0.85987361 11.54458662 -2.83740129 11.40373601 -6 11 C-8.15502531 7.76746204 -8.46856135 6.74849077 -8 3 C-5.85607122 -0.27231235 -3.76836426 -0.56525464 0 0 Z " fill="#55A5A2" transform="translate(800,471)"/>
<path d="M0 0 C2 2 2 2 2.25 5.5 C2 9 2 9 0 11 C-3 11.25 -3 11.25 -6 11 C-8 9 -8 9 -8.3125 6.0625 C-8 3 -8 3 -6.8125 1.125 C-4.38241919 -0.38332602 -2.80984248 -0.36023622 0 0 Z " fill="#489FA0" transform="translate(917,471)"/>
<path d="M0 0 C2.4375 0.75 2.4375 0.75 4.4375 2.75 C4.80237512 5.59602594 4.83949375 7.1364306 3.25 9.5625 C0.76512734 11.19052002 -0.64961432 11.25975499 -3.5625 10.75 C-5.4375 9.0625 -5.4375 9.0625 -6.5625 6.75 C-6.4375 4.125 -6.4375 4.125 -5.5625 1.75 C-2.5625 -0.25 -2.5625 -0.25 0 0 Z " fill="#7AB95B" transform="translate(1170.5625,723.25)"/>
<path d="M0 0 C2.4375 0.8125 2.4375 0.8125 4.4375 2.8125 C4.82036803 6.54546326 4.58665785 7.58876323 2.4375 10.8125 C-0.75209781 11.2196827 -2.72250247 11.32733719 -5.5 9.625 C-6.5625 7.8125 -6.5625 7.8125 -6.4375 5.3125 C-5.12382273 1.55913637 -4.20165457 -0.30743814 0 0 Z " fill="#49A1A1" transform="translate(708.5625,471.1875)"/>
<path d="M0 0 C2.4375 0.75 2.4375 0.75 4.4375 2.75 C4.80237512 5.59602594 4.83949375 7.1364306 3.25 9.5625 C0.8239306 11.15199375 -0.71647406 11.11487512 -3.5625 10.75 C-5.5625 8.75 -5.5625 8.75 -5.875 5.25 C-5.771875 4.095 -5.66875 2.94 -5.5625 1.75 C-2.5625 -0.25 -2.5625 -0.25 0 0 Z " fill="#319FA4" transform="translate(294.5625,48.25)"/>
<path d="M0 0 C2.375 -0.125 2.375 -0.125 5 0 C7 2 7 2 7.1953125 4.1640625 C7.17210937 4.97617187 7.14890625 5.78828125 7.125 6.625 C7.10695313 7.44226563 7.08890625 8.25953125 7.0703125 9.1015625 C7.03550781 10.04128906 7.03550781 10.04128906 7 11 C4.36 11 1.72 11 -1 11 C-1.38218767 9.34385343 -1.71395102 7.67542976 -2 6 C-1 5 -1 5 2.0625 4.9375 C3.5165625 4.9684375 3.5165625 4.9684375 5 5 C4.67 4.34 4.34 3.68 4 3 C1.47266765 2.34444881 1.47266765 2.34444881 -1 2 C-0.67 1.34 -0.34 0.68 0 0 Z " fill="#489F99" transform="translate(879,471)"/>
<path d="M0 0 C2.375 -0.125 2.375 -0.125 5 0 C7 2 7 2 7.1953125 4.1640625 C7.17210937 4.97617187 7.14890625 5.78828125 7.125 6.625 C7.10695313 7.44226563 7.08890625 8.25953125 7.0703125 9.1015625 C7.03550781 10.04128906 7.03550781 10.04128906 7 11 C4.36 11 1.72 11 -1 11 C-1.38218767 9.34385343 -1.71395102 7.67542976 -2 6 C-1 5 -1 5 2.0625 4.9375 C3.5165625 4.9684375 3.5165625 4.9684375 5 5 C5 4.01 5 3.02 5 2 C3.02 2 1.04 2 -1 2 C-0.67 1.34 -0.34 0.68 0 0 Z " fill="#4EA49E" transform="translate(840,471)"/>
<path d="M0 0 C0.763125 0.20625 1.52625 0.4125 2.3125 0.625 C2.6425 2.275 2.9725 3.925 3.3125 5.625 C1.0025 5.625 -1.3075 5.625 -3.6875 5.625 C-3.6875 6.615 -3.6875 7.605 -3.6875 8.625 C-0.2225 8.13 -0.2225 8.13 3.3125 7.625 C2.9825 8.615 2.6525 9.605 2.3125 10.625 C-0.5625 10.75 -0.5625 10.75 -3.6875 10.625 C-5.6875 8.625 -5.6875 8.625 -6 5.125 C-5.896875 3.97 -5.79375 2.815 -5.6875 1.625 C-2.6875 -0.375 -2.6875 -0.375 0 0 Z " fill="#72B8B7" transform="translate(758.6875,471.375)"/>
<path d="M0 0 C3.25207092 1.41738489 5.31361067 3.12526412 7.75 5.6875 C10.30989062 8.31784633 12.88527382 10.8177527 15.6875 13.1875 C21.79637782 18.42717877 27.35207179 24.27458497 33 30 C32.67 30.66 32.34 31.32 32 32 C31.52691406 31.52167725 31.05382813 31.04335449 30.56640625 30.55053711 C28.38035594 28.3434466 26.19020871 26.14046367 24 23.9375 C23.25621094 23.18533203 22.51242187 22.43316406 21.74609375 21.65820312 C17.53608633 17.42989133 13.24154102 13.38132325 8.71875 9.48950195 C6.7372165 7.77226674 4.8496668 5.98323008 3 4.125 C2.4225 3.55007813 1.845 2.97515625 1.25 2.3828125 C0 1 0 1 0 0 Z " fill="#5BC0C5" transform="translate(1224,567)"/>
<path d="M0 0 C2 2 2 2 2 6 C-0.64 6 -3.28 6 -6 6 C-5.01 7.485 -5.01 7.485 -4 9 C-1.41619823 9.25030977 -1.41619823 9.25030977 1 9 C0.67 9.66 0.34 10.32 0 11 C-4.44936709 11.36075949 -4.44936709 11.36075949 -6.8125 9.8125 C-8.42525784 7.35092224 -8.4334014 5.88934264 -8 3 C-5.84871852 -0.2835349 -3.77529378 -0.48401202 0 0 Z " fill="#4FA3A4" transform="translate(663,471)"/>
<path d="M0 0 C0.66 0 1.32 0 2 0 C2 1.98 2 3.96 2 6 C2.94875 5.79375 3.8975 5.5875 4.875 5.375 C6.421875 5.189375 6.421875 5.189375 8 5 C10 7 10 7 10.1953125 9.1640625 C10.17210937 9.97617187 10.14890625 10.78828125 10.125 11.625 C10.10695313 12.44226563 10.08890625 13.25953125 10.0703125 14.1015625 C10.03550781 15.04128906 10.03550781 15.04128906 10 16 C9.34 16 8.68 16 8 16 C8 13.03 8 10.06 8 7 C6.35 7.33 4.7 7.66 3 8 C2.67 10.64 2.34 13.28 2 16 C1.34 16 0.68 16 0 16 C0 10.72 0 5.44 0 0 Z " fill="#53A8A0" transform="translate(862,466)"/>
<path d="M0 0 C4.43658878 1.47611411 7.76774094 3.9264814 11.375 6.8125 C12.52144082 7.71312446 13.66857074 8.61287248 14.81640625 9.51171875 C15.36312988 9.94145996 15.90985352 10.37120117 16.47314453 10.81396484 C19.25006604 12.97102987 22.1168536 14.98850251 25 17 C24.01 17.66 23.02 18.32 22 19 C19.26718298 16.77527885 16.5394282 14.54443387 13.8125 12.3125 C13.04357422 11.68666016 12.27464844 11.06082031 11.48242188 10.41601562 C7.44824498 7.10902941 3.60180553 3.77503866 0 0 Z " fill="#DAEDEA" transform="translate(163,138)"/>
<path d="M0 0 C0 0.33 0 0.66 0 1 C-10.42095218 2.53370124 -20.46077862 3.27256607 -31 3 C-31 2.34 -31 1.68 -31 1 C-20.69339617 -0.32378398 -10.36776236 -0.09139066 0 0 Z " fill="#DEE9D9" transform="translate(1257,759)"/>
<path d="M0 0 C1.80997736 3.4500038 3.26017315 7.0014711 4.6875 10.625 C5.14511719 11.77226563 5.60273437 12.91953125 6.07421875 14.1015625 C7 17 7 17 6 19 C5.01979625 20.0194119 4.02196992 21.02246356 3 22 C0.563832 14.50298299 -0.41136629 7.87690257 0 0 Z " fill="#185B6A" transform="translate(1346,623)"/>
<path d="M0 0 C0 0.66 0 1.32 0 2 C-1.98 2.33 -3.96 2.66 -6 3 C-5.27731765 6.2985139 -5.27731765 6.2985139 -1.9375 7.6875 C-0.4834375 8.3371875 -0.4834375 8.3371875 1 9 C0.125 13.875 0.125 13.875 -1 15 C-6.52941176 15.23529412 -6.52941176 15.23529412 -9 14 C-9 13.34 -9 12.68 -9 12 C-6.36 12 -3.72 12 -1 12 C-0.67 11.34 -0.34 10.68 0 10 C-0.928125 9.71125 -1.85625 9.4225 -2.8125 9.125 C-6 8 -6 8 -9 6 C-8.625 3.5625 -8.625 3.5625 -8 1 C-5.29120665 -0.35439668 -2.99066732 -0.06501451 0 0 Z " fill="#4CA1A2" transform="translate(616,467)"/>
<path d="M0 0 C1.2065625 0.0309375 1.2065625 0.0309375 2.4375 0.0625 C3.0625 2.375 3.0625 2.375 3.4375 5.0625 C2.4475 6.5475 2.4475 6.5475 1.4375 8.0625 C-0.2125 7.7325 -1.8625 7.4025 -3.5625 7.0625 C-3.60504356 5.06295254 -3.60330783 3.06208364 -3.5625 1.0625 C-2.5625 0.0625 -2.5625 0.0625 0 0 Z " fill="#EDF3F3" transform="translate(645.5625,472.9375)"/>
<path d="M0 0 C3.5786304 1.65167557 6.74820188 3.78286492 10 6 C5.5595445 7.48015183 1.76206659 6.20911569 -2.7734375 5.375 C-5.93067995 4.83704836 -5.93067995 4.83704836 -8.7265625 5.5625 C-11 6 -11 6 -14 4 C-8.47032059 3.28966569 -3.50016964 2.69732824 2 4 C1.34 2.68 0.68 1.36 0 0 Z " fill="#50B4A5" transform="translate(1308,617)"/>
<path d="M0 0 C2.625 0.375 2.625 0.375 5 1 C5.125 3.375 5.125 3.375 5 6 C4.34 6.66 3.68 7.32 3 8 C0.875 7.625 0.875 7.625 -1 7 C-1.625 4.625 -1.625 4.625 -2 2 C-1.34 1.34 -0.68 0.68 0 0 Z " fill="#F4F6F6" transform="translate(706,473)"/>
<path d="M0 0 C1.67542976 0.28604898 3.34385343 0.61781233 5 1 C5 2.98 5 4.96 5 7 C3.1875 7.6875 3.1875 7.6875 1 8 C-0.8125 6.8125 -0.8125 6.8125 -2 5 C-1.74853421 2.86254078 -1.54074221 1.54074221 0 0 Z " fill="#F0F5F4" transform="translate(912,473)"/>
<path d="M0 0 C1.2065625 0.0309375 1.2065625 0.0309375 2.4375 0.0625 C3.5625 4.8125 3.5625 4.8125 2.4375 7.0625 C0.77138095 7.105221 -0.89632885 7.10313832 -2.5625 7.0625 C-3.5625 6.0625 -3.5625 6.0625 -3.6875 3.5625 C-3.51717518 0.15600356 -3.41884482 0.08338646 0 0 Z " fill="#F3F6F5" transform="translate(797.5625,472.9375)"/>
<path d="M0 0 C0.78375 0.04125 1.5675 0.0825 2.375 0.125 C2.705 0.785 3.035 1.445 3.375 2.125 C1.395 2.125 -0.585 2.125 -2.625 2.125 C-1.23304085 4.9089183 0.53075779 5.10398997 3.375 6.125 C2.5 10 2.5 10 1.375 11.125 C-0.62458364 11.16580783 -2.62545254 11.16754356 -4.625 11.125 C-4.625 10.465 -4.625 9.805 -4.625 9.125 C-2.975 9.125 -1.325 9.125 0.375 9.125 C0.705 8.465 1.035 7.805 1.375 7.125 C-0.275 6.795 -1.925 6.465 -3.625 6.125 C-4.25 4.25 -4.25 4.25 -4.625 2.125 C-2.625 0.125 -2.625 0.125 0 0 Z " fill="#58A5A4" transform="translate(674.625,470.875)"/>
<path d="M0 0 C7.92 0.66 15.84 1.32 24 2 C24 2.33 24 2.66 24 3 C22.35 3 20.7 3 19 3 C19 3.66 19 4.32 19 5 C13.72 4.34 8.44 3.68 3 3 C3 2.34 3 1.68 3 1 C2.01 0.67 1.02 0.34 0 0 Z " fill="#E9F0DF" transform="translate(235,16)"/>
<path d="M0 0 C0 0.66 0 1.32 0 2 C-1.65 2 -3.3 2 -5 2 C-3.62308038 4.75383923 -1.63279958 5.51483101 1 7 C0.67 8.32 0.34 9.64 0 11 C-2.31 11 -4.62 11 -7 11 C-7 10.34 -7 9.68 -7 9 C-5.35 9 -3.7 9 -2 9 C-1.67 8.34 -1.34 7.68 -1 7 C-2.98 6.34 -4.96 5.68 -7 5 C-7 3.68 -7 2.36 -7 1 C-4.53721199 -0.231394 -2.7204945 -0.07159196 0 0 Z " fill="#50A49E" transform="translate(931,471)"/>
<path d="M0 0 C1.2065625 0.0309375 1.2065625 0.0309375 2.4375 0.0625 C2.4375 2.3725 2.4375 4.6825 2.4375 7.0625 C0.5625 7.6875 0.5625 7.6875 -1.5625 8.0625 C-3.5625 6.0625 -3.5625 6.0625 -3.75 3.5 C-3.4919783 0.14571793 -3.38163728 0.08247896 0 0 Z " fill="#F7FAF9" transform="translate(742.5625,472.9375)"/>
<path d="M0 0 C1.65 0 3.3 0 5 0 C5.33 0.66 5.66 1.32 6 2 C4.02 2 2.04 2 0 2 C1.39195915 4.7839183 3.15575779 4.97898997 6 6 C5.67 7.65 5.34 9.3 5 11 C3.02 11 1.04 11 -1 11 C-1.33 10.34 -1.66 9.68 -2 9 C-0.02 9 1.96 9 4 9 C2.62308038 6.24616077 0.63279958 5.48516899 -2 4 C-1.34 2.68 -0.68 1.36 0 0 Z " fill="#57A3A6" transform="translate(684,471)"/>
<path d="M0 0 C1.67542976 0.28604898 3.34385343 0.61781233 5 1 C5 2.98 5 4.96 5 7 C3.125 7.625 3.125 7.625 1 8 C-1 6 -1 6 -1.1875 3.4375 C-1 1 -1 1 0 0 Z " fill="#F5F7F7" transform="translate(810,473)"/>
<path d="M0 0 C1 1 1 1 1.09765625 3.06640625 C1.08605469 3.89011719 1.07445312 4.71382813 1.0625 5.5625 C1.05347656 6.38878906 1.04445313 7.21507812 1.03515625 8.06640625 C1.02355469 8.70449219 1.01195312 9.34257812 1 10 C0.34 10 -0.32 10 -1 10 C-1.33 7.36 -1.66 4.72 -2 2 C-3.32 2 -4.64 2 -6 2 C-6.33 4.64 -6.66 7.28 -7 10 C-7.33 10 -7.66 10 -8 10 C-8 6.7 -8 3.4 -8 0 C-4.69676014 -1.10107995 -3.29495231 -0.86709271 0 0 Z " fill="#3AA19C" transform="translate(832,472)"/>
<path d="M0 0 C0 3.19610552 -0.54671542 4.41717626 -2 7.1875 C-2.37125 7.90292969 -2.7425 8.61835938 -3.125 9.35546875 C-3.41375 9.89816406 -3.7025 10.44085938 -4 11 C-4.99 11 -5.98 11 -7 11 C-8.88669495 12.30576503 -8.88669495 12.30576503 -10.6875 14 C-11.62142578 14.8353125 -11.62142578 14.8353125 -12.57421875 15.6875 C-13.04472656 16.120625 -13.51523437 16.55375 -14 17 C-12.70396588 14.17131143 -11.30810402 12.0298979 -9.1796875 9.765625 C-8.64472656 9.19199219 -8.10976563 8.61835938 -7.55859375 8.02734375 C-7.00300781 7.44082031 -6.44742188 6.85429687 -5.875 6.25 C-5.31167969 5.64800781 -4.74835937 5.04601562 -4.16796875 4.42578125 C-2.78275854 2.94665849 -1.3919271 1.47280359 0 0 Z " fill="#EDF3EA" transform="translate(554,419)"/>
<path d="M0 0 C0.99 0 1.98 0 3 0 C3 3.63 3 7.26 3 11 C2.01 11 1.02 11 0 11 C0 7.37 0 3.74 0 0 Z " fill="#73B7B6" transform="translate(634,471)"/>
<path d="M0 0 C0 2.64 0 5.28 0 8 C-1.32 7.34 -2.64 6.68 -4 6 C-4 5.34 -4 4.68 -4 4 C-4.66 4 -5.32 4 -6 4 C-5.67 3.01 -5.34 2.02 -5 1 C-3.28960011 0.41205004 -1.81522119 0 0 0 Z " fill="#E9F1E9" transform="translate(1408,704)"/>
<path d="M0 0 C-1.15173355 2.46800047 -2.04783565 4.04783565 -4 6 C-4.6425235 8.06874034 -4.6425235 8.06874034 -5 10 C-5.66 10 -6.32 10 -7 10 C-6.39169139 3.55192878 -6.39169139 3.55192878 -4.625 1.0625 C-3 0 -3 0 0 0 Z " fill="#5FC2C6" transform="translate(1196,570)"/>
<path d="M0 0 C1.98 0 3.96 0 6 0 C6 0.66 6 1.32 6 2 C5.01 2.33 4.02 2.66 3 3 C2.67 5.64 2.34 8.28 2 11 C1.34 11 0.68 11 0 11 C0 7.37 0 3.74 0 0 Z " fill="#429C97" transform="translate(718,471)"/>
<path d="M0 0 C1.98 0 3.96 0 6 0 C6 0.66 6 1.32 6 2 C5.01 2.33 4.02 2.66 3 3 C2.67 5.64 2.34 8.28 2 11 C1.34 11 0.68 11 0 11 C0 7.37 0 3.74 0 0 Z " fill="#56A6A2" transform="translate(899,471)"/>
<path d="M0 0 C6 8 6 8 6 12 C4.68 12 3.36 12 2 12 C1.34 8.04 0.68 4.08 0 0 Z " fill="#50A25D" transform="translate(1015,756)"/>
<path d="M0 0 C3.15330554 0.60694155 5.18888867 1.6416665 7.75 3.5625 C8.67039063 4.24505859 8.67039063 4.24505859 9.609375 4.94140625 C10.29773438 5.46541016 10.29773438 5.46541016 11 6 C10.01 6.66 9.02 7.32 8 8 C6.66372225 6.85760183 5.33104612 5.71098945 4 4.5625 C3.2575 3.92441406 2.515 3.28632813 1.75 2.62890625 C1.1725 2.09136719 0.595 1.55382812 0 1 C0 0.67 0 0.34 0 0 Z " fill="#E2F1F1" transform="translate(177,149)"/>
<path d="M0 0 C2.64 0 5.28 0 8 0 C7.67 1.32 7.34 2.64 7 4 C5.35 4 3.7 4 2 4 C1.34 2.68 0.68 1.36 0 0 Z " fill="#DDE9E8" transform="translate(657,477)"/>
<path d="M0 0 C1.32 0.33 2.64 0.66 4 1 C1.69 3.97 -0.62 6.94 -3 10 C-3.66 9.67 -4.32 9.34 -5 9 C-3.35 6.03 -1.7 3.06 0 0 Z " fill="#E5EBE4" transform="translate(581,382)"/>
<path d="M0 0 C0.33 0 0.66 0 1 0 C1.33975517 3.65236803 1.20830209 5.61672415 -0.5625 8.875 C-3 11 -3 11 -6.75 11.3125 C-7.8225 11.209375 -8.895 11.10625 -10 11 C-7.25002779 9.5268006 -5.10380501 8.77595125 -2 8 C-1.34 5.36 -0.68 2.72 0 0 Z " fill="#66C4CB" transform="translate(222,189)"/>
<path d="M0 0 C2.39763185 2.39763185 2.34280586 3.33273498 2.625 6.625 C2.69976562 7.44226562 2.77453125 8.25953125 2.8515625 9.1015625 C2.90054687 9.72804688 2.94953125 10.35453125 3 11 C2.01 11 1.02 11 0 11 C0 7.37 0 3.74 0 0 Z " fill="#86B965" transform="translate(0,35)"/>
<path d="M0 0 C2.09970981 3.9171057 2.99334562 7.68576696 4 12 C3.01 12.495 3.01 12.495 2 13 C0 11 0 11 -0.1953125 8.3984375 C-0.17210937 7.40070312 -0.14890625 6.40296875 -0.125 5.375 C-0.10695313 4.37210938 -0.08890625 3.36921875 -0.0703125 2.3359375 C-0.04710937 1.56507813 -0.02390625 0.79421875 0 0 Z " fill="#2E6B6C" transform="translate(1346,623)"/>
<path d="M0 0 C0.625 1.875 0.625 1.875 1 4 C-1 6 -1 6 -4.125 6.125 C-5.548125 6.063125 -5.548125 6.063125 -7 6 C-7 5.01 -7 4.02 -7 3 C-4.69 3 -2.38 3 0 3 C0 2.01 0 1.02 0 0 Z " fill="#E7F2F0" transform="translate(762,474)"/>
<path d="M0 0 C0 0.66 0 1.32 0 2 C-1.98 2.33 -3.96 2.66 -6 3 C-6.33 4.32 -6.66 5.64 -7 7 C-7.66 6.67 -8.32 6.34 -9 6 C-8.625 3.5625 -8.625 3.5625 -8 1 C-5.29120665 -0.35439668 -2.99066732 -0.06501451 0 0 Z " fill="#60AAA7" transform="translate(616,467)"/>
<path d="M0 0 C0.98484375 0.10183594 1.9696875 0.20367188 2.984375 0.30859375 C4.10585937 0.43427734 4.10585937 0.43427734 5.25 0.5625 C5.25 0.8925 5.25 1.2225 5.25 1.5625 C3.39375 1.5315625 3.39375 1.5315625 1.5 1.5 C-0.8997398 1.48730296 -2.73507837 1.55846713 -5.0625 2.1875 C-5.619375 2.31125 -6.17625 2.435 -6.75 2.5625 C-7.74 1.9025 -8.73 1.2425 -9.75 0.5625 C-6.33860997 -0.53401823 -3.54344419 -0.37965473 0 0 Z " fill="#5AB8A2" transform="translate(1303.75,620.4375)"/>
<path d="M0 0 C2.97 0 5.94 0 9 0 C8.67 0.99 8.34 1.98 8 3 C6.02 3.33 4.04 3.66 2 4 C1.34 2.68 0.68 1.36 0 0 Z " fill="#3A8890" transform="translate(613,397)"/>
<path d="M0 0 C0.33 0.66 0.66 1.32 1 2 C2.32 1.67 3.64 1.34 5 1 C4.60196439 3.88575819 4.20990931 4.82189513 1.9375 6.75 C1.298125 7.1625 0.65875 7.575 0 8 C0 5.36 0 2.72 0 0 Z " fill="#3C8C91" transform="translate(550,376)"/>
<path d="M0 0 C0.99 0 1.98 0 3 0 C2.67 1.65 2.34 3.3 2 5 C0.02 5 -1.96 5 -4 5 C-4.33 4.34 -4.66 3.68 -5 3 C-3.02 3 -1.04 3 1 3 C0.67 2.01 0.34 1.02 0 0 Z " fill="#5EAAA9" transform="translate(687,477)"/>
<path d="M0 0 C2.64 0 5.28 0 8 0 C7.67 0.66 7.34 1.32 7 2 C5.33871537 2.35919668 3.67099977 2.68911632 2 3 C-0.23408113 3.99083967 -0.23408113 3.99083967 -2 5 C-1.34 3.35 -0.68 1.7 0 0 Z " fill="#2C7A7C" transform="translate(909,397)"/>
<path d="M0 0 C-0.33 0.99 -0.66 1.98 -1 3 C-4.63 3 -8.26 3 -12 3 C-12 2.67 -12 2.34 -12 2 C-10.56342755 1.66269158 -9.12569907 1.33030409 -7.6875 1 C-6.88699219 0.814375 -6.08648438 0.62875 -5.26171875 0.4375 C-3 0 -3 0 0 0 Z " fill="#E0F0ED" transform="translate(1114,765)"/>
<path d="M0 0 C0.66 0.33 1.32 0.66 2 1 C1.34 1.721875 0.68 2.44375 0 3.1875 C-2.1535853 6.21597933 -2.41176754 7.39703406 -2 11 C-2.66 10.34 -3.32 9.68 -4 9 C-3.8125 5.5 -3.8125 5.5 -3 2 C-2.01 1.34 -1.02 0.68 0 0 Z " fill="#63C3C7" transform="translate(1220,551)"/>
<path d="M0 0 C1.65 0 3.3 0 5 0 C5 0.99 5 1.98 5 3 C3.35 3.33 1.7 3.66 0 4 C0 2.68 0 1.36 0 0 Z " fill="#E4EFEB" transform="translate(879,477)"/>
<path d="M0 0 C2.31 1.65 4.62 3.3 7 5 C6.01 5.33 5.02 5.66 4 6 C3.67 6.99 3.34 7.98 3 9 C2.01 6.03 1.02 3.06 0 0 Z " fill="#70A95D" transform="translate(85,110)"/>
<path d="M0 0 C1.485 0.99 1.485 0.99 3 2 C3.99 1.34 4.98 0.68 6 0 C6 1.32 6 2.64 6 4 C3.69 4 1.38 4 -1 4 C-0.67 2.68 -0.34 1.36 0 0 Z " fill="#0E6E73" transform="translate(717,431)"/>
<path d="M0 0 C0.598125 0.20625 1.19625 0.4125 1.8125 0.625 C1.4825 1.615 1.1525 2.605 0.8125 3.625 C-1.1675 3.625 -3.1475 3.625 -5.1875 3.625 C-5.1875 2.965 -5.1875 2.305 -5.1875 1.625 C-2.1875 -0.375 -2.1875 -0.375 0 0 Z " fill="#D9E7E6" transform="translate(928.1875,477.375)"/>
<path d="M0 0 C0 3.69418201 -1.28179295 5.77836178 -3 9 C-3.66 7.68 -4.32 6.36 -5 5 C-3.35 3.35 -1.7 1.7 0 0 Z " fill="#DFE7E0" transform="translate(554,419)"/>
<path d="M0 0 C1.32 0 2.64 0 4 0 C3.67 1.32 3.34 2.64 3 4 C1.68 3.67 0.36 3.34 -1 3 C-0.67 2.01 -0.34 1.02 0 0 Z " fill="#F4F5F6" transform="translate(841,477)"/>
<path d="M0 0 C0.33 0.66 0.66 1.32 1 2 C0.01 3.485 0.01 3.485 -1 5 C-2.32 4.34 -3.64 3.68 -5 3 C-5 2.34 -5 1.68 -5 1 C-3.35 0.67 -1.7 0.34 0 0 Z " fill="#ECF1F1" transform="translate(931,472)"/>
<path d="M0 0 C1.65 0 3.3 0 5 0 C5 0.99 5 1.98 5 3 C3.02 3 1.04 3 -1 3 C-0.67 2.01 -0.34 1.02 0 0 Z " fill="#E7EDEE" transform="translate(658,473)"/>
<path d="M0 0 C1.65 0 3.3 0 5 0 C3.71937515 1.7074998 2.38232443 3.37373596 1 5 C0.34 5 -0.32 5 -1 5 C-0.67 3.35 -0.34 1.7 0 0 Z " fill="#2E7C81" transform="translate(528,341)"/>
</svg>
